<svg width="205" height="246" viewBox="0 0 205 246" fill="none" xmlns="http://www.w3.org/2000/svg">
<g opacity="0.5" filter="url(#filter0_i_827_42)">
<path d="M171 75C168.075 83.7765 162.056 90.5133 153.535 94.2903C126.17 106.422 106.422 126.17 94.2903 153.535C90.5133 162.056 83.7765 168.075 75 171" stroke="#3F3F47" stroke-width="6" stroke-linejoin="round"/>
<path d="M17.4 228.6L3 243M228.6 17.4L243 3" stroke="#3F3F47" stroke-width="6" stroke-linecap="round" stroke-linejoin="round"/>
<path d="M53.3093 146.23L55.4307 144.109V144.109L53.3093 146.23ZM99.7698 192.691L97.6485 194.812V194.812L99.7698 192.691ZM71.8935 220.567L74.0148 218.446V218.446L71.8935 220.567ZM90.8605 228.062L92.0085 230.833V230.833L90.8605 228.062ZM80.8028 228.062L79.6548 230.833V230.833L80.8028 228.062ZM107.264 201.6L110.036 200.452V200.452L107.264 201.6ZM107.264 211.658L110.036 212.806V212.806L107.264 211.658ZM34.3424 138.736L33.1943 135.964H33.1943L34.3424 138.736ZM44.4001 138.736L45.5481 135.964H45.5481L44.4001 138.736ZM17.9384 155.14L15.1668 153.991L17.9384 155.14ZM17.9384 165.197L15.1668 166.345L17.9384 165.197ZM62.6014 229.859L64.7228 231.98V231.98L62.6014 229.859ZM25.4331 229.859L23.3118 231.98H23.3118L25.4331 229.859ZM16.141 220.567L18.2623 218.446H18.2623L16.141 220.567ZM44.0173 243V240H44.0173L44.0173 243ZM146.23 53.3093L144.109 55.4307V55.4307L146.23 53.3093ZM192.691 99.7698L194.812 97.6485V97.6485L192.691 99.7698ZM220.567 71.8935L218.446 74.0148V74.0148L220.567 71.8935ZM228.062 90.8605L230.833 92.0085V92.0085L228.062 90.8605ZM228.062 80.8028L230.833 79.6548V79.6548L228.062 80.8028ZM201.6 107.264L200.452 110.036V110.036L201.6 107.264ZM211.658 107.264L212.806 110.036V110.036L211.658 107.264ZM138.736 34.3424L135.964 33.1943V33.1943L138.736 34.3424ZM138.736 44.4001L135.964 45.5481V45.5481L138.736 44.4001ZM155.14 17.9384L153.991 15.1668L155.14 17.9384ZM165.197 17.9384L166.345 15.1668L165.197 17.9384ZM229.859 62.6014L231.98 64.7228V64.7228L229.859 62.6014ZM229.859 25.4331L231.98 23.3118V23.3118L229.859 25.4331ZM220.567 16.141L218.446 18.2623V18.2623L220.567 16.141ZM243 44.0173L240 44.0173V44.0173H243ZM53.3093 146.23L51.188 148.352L97.6485 194.812L99.7698 192.691L101.891 190.569L55.4307 144.109L53.3093 146.23ZM71.8935 220.567L74.0148 218.446L27.5544 171.985L25.4331 174.106L23.3118 176.228L69.7722 222.688L71.8935 220.567ZM99.7698 220.567L97.6485 218.446C95.4546 220.639 93.9144 222.177 92.6251 223.302C91.3563 224.409 90.4934 224.966 89.7124 225.29L90.8605 228.062L92.0085 230.833C93.6425 230.156 95.0695 229.132 96.5692 227.824C98.0484 226.533 99.7553 224.824 101.891 222.688L99.7698 220.567ZM71.8935 220.567L69.7722 222.688C71.908 224.824 73.6149 226.533 75.0941 227.824C76.5938 229.132 78.0208 230.156 79.6548 230.833L80.8028 228.062L81.9509 225.29C81.1699 224.966 80.307 224.409 79.0382 223.302C77.7489 222.177 76.2086 220.639 74.0148 218.446L71.8935 220.567ZM90.8605 228.062L89.7124 225.29C87.2276 226.319 84.4357 226.319 81.9509 225.29L80.8028 228.062L79.6548 230.833C83.6097 232.471 88.0535 232.471 92.0085 230.833L90.8605 228.062ZM99.7698 192.691L97.6485 194.812C99.8423 197.006 101.38 198.546 102.505 199.835C103.612 201.104 104.169 201.967 104.493 202.748L107.264 201.6L110.036 200.452C109.359 198.818 108.334 197.391 107.026 195.891C105.736 194.412 104.027 192.705 101.891 190.569L99.7698 192.691ZM99.7698 220.567L101.891 222.688C104.027 220.552 105.736 218.846 107.026 217.366C108.334 215.867 109.359 214.44 110.036 212.806L107.264 211.658L104.493 210.51C104.169 211.291 103.612 212.153 102.505 213.422C101.38 214.712 99.8423 216.252 97.6485 218.446L99.7698 220.567ZM107.264 201.6L104.493 202.748C105.522 205.233 105.522 208.025 104.493 210.51L107.264 211.658L110.036 212.806C111.674 208.851 111.674 204.407 110.036 200.452L107.264 201.6ZM25.4331 146.23L27.5544 148.352C29.7482 146.158 31.2885 144.62 32.5777 143.495C33.8466 142.388 34.7094 141.831 35.4904 141.507L34.3424 138.736L33.1943 135.964C31.5604 136.641 30.1333 137.666 28.6337 138.974C27.1544 140.264 25.4475 141.973 23.3118 144.109L25.4331 146.23ZM53.3093 146.23L55.4307 144.109C53.2949 141.973 51.588 140.264 50.1087 138.974C48.6091 137.666 47.1821 136.641 45.5481 135.964L44.4001 138.736L43.252 141.507C44.033 141.831 44.8958 142.388 46.1647 143.495C47.4539 144.62 48.9942 146.158 51.188 148.352L53.3093 146.23ZM34.3424 138.736L35.4904 141.507C37.9753 140.478 40.7672 140.478 43.252 141.507L44.4001 138.736L45.5481 135.964C41.5931 134.326 37.1493 134.326 33.1943 135.964L34.3424 138.736ZM25.4331 146.23L23.3118 144.109C21.176 146.245 19.4668 147.952 18.1765 149.431C16.8684 150.93 15.8436 152.358 15.1668 153.991L17.9384 155.14L20.7101 156.288C21.0336 155.507 21.5913 154.644 22.6981 153.375C23.8226 152.086 25.3606 150.545 27.5544 148.352L25.4331 146.23ZM25.4331 174.106L27.5544 171.985C25.3606 169.791 23.8226 168.251 22.6981 166.962C21.5913 165.693 21.0336 164.83 20.7101 164.049L17.9384 165.197L15.1668 166.345C15.8436 167.979 16.8684 169.406 18.1765 170.906C19.4668 172.385 21.176 174.092 23.3118 176.228L25.4331 174.106ZM17.9384 155.14L15.1668 153.991C13.5286 157.946 13.5286 162.39 15.1668 166.345L17.9384 165.197L20.7101 164.049C19.6808 161.564 19.6808 158.772 20.7101 156.288L17.9384 155.14ZM16.141 183.399L18.2623 185.52L27.5544 176.228L25.4331 174.106L23.3118 171.985L14.0197 181.277L16.141 183.399ZM71.8935 220.567L69.7722 218.446L60.4801 227.738L62.6014 229.859L64.7228 231.98L74.0148 222.688L71.8935 220.567ZM25.4331 229.859L27.5544 227.738L18.2623 218.446L16.141 220.567L14.0197 222.688L23.3118 231.98L25.4331 229.859ZM62.6014 229.859L60.4801 227.738C56.0398 232.178 52.9185 235.29 50.2455 237.33C47.6418 239.316 45.8192 240 44.0173 240V243L44.0173 246C47.6585 246 50.7476 244.494 53.885 242.1C56.9532 239.759 60.4024 236.301 64.7228 231.98L62.6014 229.859ZM25.4331 229.859L23.3118 231.98C27.6321 236.301 31.0813 239.759 34.1495 242.1C37.2869 244.494 40.376 246 44.0173 246V243L44.0173 240C42.2153 240 40.3927 239.316 37.789 237.33C35.116 235.29 31.9947 232.178 27.5544 227.738L25.4331 229.859ZM16.141 183.399L14.0197 181.277C9.69931 185.598 6.24113 189.047 3.90018 192.115C1.50641 195.252 0 198.341 0 201.983H3H6C6 200.181 6.68375 198.358 8.67031 195.754C10.7097 193.082 13.822 189.96 18.2623 185.52L16.141 183.399ZM16.141 220.567L18.2623 218.446C13.822 214.005 10.7097 210.884 8.67031 208.211C6.68375 205.607 6 203.785 6 201.983H3H0C0 205.624 1.50641 208.713 3.90019 211.851C6.24114 214.919 9.69931 218.368 14.0197 222.688L16.141 220.567ZM146.23 53.3093L144.109 55.4307L190.569 101.891L192.691 99.7698L194.812 97.6485L148.352 51.188L146.23 53.3093ZM220.567 71.8935L222.688 69.7722L176.228 23.3118L174.106 25.4331L171.985 27.5544L218.446 74.0148L220.567 71.8935ZM220.567 99.7698L222.688 101.891C224.824 99.7553 226.533 98.0484 227.824 96.5692C229.132 95.0695 230.156 93.6425 230.833 92.0085L228.062 90.8605L225.29 89.7124C224.966 90.4934 224.409 91.3563 223.302 92.6251C222.177 93.9144 220.639 95.4546 218.446 97.6485L220.567 99.7698ZM220.567 71.8935L218.446 74.0148C220.639 76.2086 222.177 77.7489 223.302 79.0382C224.409 80.307 224.966 81.1699 225.29 81.9509L228.062 80.8028L230.833 79.6548C230.156 78.0208 229.132 76.5938 227.824 75.0941C226.533 73.6149 224.824 71.908 222.688 69.7722L220.567 71.8935ZM228.062 90.8605L230.833 92.0085C232.471 88.0535 232.471 83.6097 230.833 79.6548L228.062 80.8028L225.29 81.9509C226.319 84.4357 226.319 87.2276 225.29 89.7124L228.062 90.8605ZM192.691 99.7698L190.569 101.891C192.705 104.027 194.412 105.736 195.891 107.026C197.391 108.334 198.818 109.359 200.452 110.036L201.6 107.264L202.748 104.493C201.967 104.169 201.104 103.612 199.835 102.505C198.546 101.38 197.006 99.8423 194.812 97.6485L192.691 99.7698ZM220.567 99.7698L218.446 97.6485C216.252 99.8423 214.712 101.38 213.422 102.505C212.153 103.612 211.291 104.169 210.51 104.493L211.658 107.264L212.806 110.036C214.44 109.359 215.867 108.334 217.366 107.026C218.846 105.736 220.552 104.027 222.688 101.891L220.567 99.7698ZM201.6 107.264L200.452 110.036C204.407 111.674 208.851 111.674 212.806 110.036L211.658 107.264L210.51 104.493C208.025 105.522 205.233 105.522 202.748 104.493L201.6 107.264ZM146.23 25.4331L144.109 23.3118C141.973 25.4475 140.264 27.1544 138.974 28.6337C137.666 30.1333 136.641 31.5604 135.964 33.1943L138.736 34.3424L141.507 35.4904C141.831 34.7094 142.388 33.8466 143.495 32.5777C144.62 31.2885 146.158 29.7482 148.352 27.5544L146.23 25.4331ZM146.23 53.3093L148.352 51.188C146.158 48.9942 144.62 47.4539 143.495 46.1647C142.388 44.8958 141.831 44.033 141.507 43.252L138.736 44.4001L135.964 45.5481C136.641 47.1821 137.666 48.6091 138.974 50.1087C140.264 51.588 141.973 53.2949 144.109 55.4307L146.23 53.3093ZM138.736 34.3424L135.964 33.1943C134.326 37.1493 134.326 41.5931 135.964 45.5481L138.736 44.4001L141.507 43.252C140.478 40.7672 140.478 37.9753 141.507 35.4904L138.736 34.3424ZM146.23 25.4331L148.352 27.5544C150.545 25.3606 152.086 23.8226 153.375 22.6981C154.644 21.5913 155.507 21.0336 156.288 20.7101L155.14 17.9384L153.991 15.1668C152.358 15.8436 150.93 16.8684 149.431 18.1765C147.952 19.4668 146.245 21.176 144.109 23.3118L146.23 25.4331ZM174.106 25.4331L176.228 23.3118C174.092 21.176 172.385 19.4668 170.906 18.1765C169.406 16.8684 167.979 15.8436 166.345 15.1668L165.197 17.9384L164.049 20.7101C164.83 21.0336 165.693 21.5913 166.962 22.6981C168.251 23.8226 169.791 25.3606 171.985 27.5544L174.106 25.4331ZM155.14 17.9384L156.288 20.7101C158.772 19.6808 161.564 19.6808 164.049 20.7101L165.197 17.9384L166.345 15.1668C162.39 13.5286 157.946 13.5286 153.991 15.1668L155.14 17.9384ZM183.399 16.141L181.277 14.0197L171.985 23.3118L174.106 25.4331L176.228 27.5544L185.52 18.2623L183.399 16.141ZM220.567 71.8935L222.688 74.0148L231.98 64.7228L229.859 62.6014L227.738 60.4801L218.446 69.7722L220.567 71.8935ZM229.859 25.4331L231.98 23.3118L222.688 14.0197L220.567 16.141L218.446 18.2623L227.738 27.5544L229.859 25.4331ZM229.859 62.6014L231.98 64.7228C236.301 60.4024 239.759 56.9532 242.1 53.885C244.494 50.7476 246 47.6585 246 44.0173L243 44.0173H240C240 45.8192 239.316 47.6418 237.33 50.2455C235.29 52.9185 232.178 56.0398 227.738 60.4801L229.859 62.6014ZM229.859 25.4331L227.738 27.5544C232.178 31.9947 235.29 35.116 237.33 37.789C239.316 40.3927 240 42.2153 240 44.0173L243 44.0173H246C246 40.376 244.494 37.2869 242.1 34.1495C239.759 31.0813 236.301 27.6321 231.98 23.3118L229.859 25.4331ZM183.399 16.141L185.52 18.2623C189.96 13.822 193.082 10.7097 195.754 8.67031C198.358 6.68375 200.181 6 201.983 6V3V0C198.341 0 195.252 1.50641 192.115 3.90018C189.047 6.24113 185.598 9.69931 181.277 14.0197L183.399 16.141ZM220.567 16.141L222.688 14.0197C218.368 9.69931 214.919 6.24114 211.851 3.90019C208.713 1.50641 205.624 0 201.983 0V3V6C203.785 6 205.607 6.68375 208.211 8.67031C210.884 10.7097 214.005 13.822 218.446 18.2623L220.567 16.141Z" fill="#3F3F47"/>
</g>
<defs>
<filter id="filter0_i_827_42" x="0" y="0" width="246" height="248" filterUnits="userSpaceOnUse" color-interpolation-filters="sRGB">
<feFlood flood-opacity="0" result="BackgroundImageFix"/>
<feBlend mode="normal" in="SourceGraphic" in2="BackgroundImageFix" result="shape"/>
<feColorMatrix in="SourceAlpha" type="matrix" values="0 0 0 0 0 0 0 0 0 0 0 0 0 0 0 0 0 0 127 0" result="hardAlpha"/>
<feOffset dy="4"/>
<feGaussianBlur stdDeviation="1"/>
<feComposite in2="hardAlpha" operator="arithmetic" k2="-1" k3="1"/>
<feColorMatrix type="matrix" values="0 0 0 0 0 0 0 0 0 0 0 0 0 0 0 0 0 0 0.5 0"/>
<feBlend mode="normal" in2="shape" result="effect1_innerShadow_827_42"/>
</filter>
</defs>
</svg>
