<svg width="135" height="75" viewBox="0 0 135 75" fill="none" xmlns="http://www.w3.org/2000/svg">
<path d="M79.1219 48.0161L64.4102 48.3085H63.792L61.7522 48.5277L60.7631 48.3085L59.3414 48.5277L56.9925 48.9662H54.2109L47.9676 50.1356L45.3715 50.6472L44.2588 50.8664L41.3536 51.5972L36.5939 52.4743L29.7943 54.0821L25.7764 55.1053L20.7695 56.3477L17.8642 57.1516L15.5771 57.8094L10.9411 59.198L8.59214 59.9288L5.50144 61.0251L4.38879 61.4636L2.03986 62.3406L0.741768 62.9983L0.30907 63.4368L0 64.0215V65.0447L0.247256 65.9217L0.432698 66.214H1.05084L1.66898 66.0679L3.64702 65.4832L6.67591 64.5331L9.33391 63.583L10.3229 63.2176L11.2501 62.706L12.2392 62.1944L13.97 61.6097L17.8642 60.5135L19.595 60.075L24.1693 58.9056L26.3328 58.321L29.238 57.5901L31.6488 57.0055L35.543 56.1284L38.0774 55.6169L41.4772 54.9591L45.6187 54.2283L48.5858 53.6436L51.5529 53.2051L55.4471 52.6935L57.7343 52.4743L61.6904 52.1819L68.119 51.8896L71.1479 51.6703L76.3403 51.5972V51.7434H76.093L74.6713 52.1088L69.8498 52.8397L65.3374 53.6436L61.6904 54.3014L56.9925 55.2514L54.2727 55.8361L50.1311 56.8593L46.2369 57.8825L43.7025 58.6133L41.4772 59.3441L38.881 60.2212L35.234 61.6097L33.5032 62.3406L32.2669 62.8522L30.2889 63.7292L28.4962 64.6062L27.3218 65.1909L26.2091 65.9217L25.591 66.5064L25.2201 67.1641V67.7488L25.4055 68.5527L25.8382 69.5759L26.4564 70.3067L27.1363 70.5991H27.6308L32.6996 69.2836L35.2958 68.6258L40.6736 67.5296L47.844 66.3602L50.2548 66.0679L53.5927 65.7024L57.3016 65.337L60.7013 65.1178L63.6684 65.0447H70.9006L74.9804 65.1178L75.8458 65.1909L77.3911 65.4101L77.3293 65.4832L76.8966 66.0679L75.7221 67.4565L75.4131 68.0411L75.3512 68.4066H75.5985L76.2166 68.1873L77.1438 67.6026L77.762 67.091L78.6274 66.5795L79.8637 65.9948L80.2964 65.5563L80.4818 65.1178V63.8754L80.3582 63.2907L80.1109 62.8522L79.74 62.5598L78.751 62.1213L77.762 61.829L76.2166 61.6097L73.9913 61.4636L70.7152 61.3174H66.6973L62.6176 61.4636L57.3634 61.7559L54.7054 61.9752L49.0803 62.4868L46.3605 62.8522L44.1352 63.0714H41.9717L42.3426 62.8522L43.5789 62.3406L50.0075 60.4404L52.4183 59.7826L54.2109 59.3441L58.7851 58.3941L62.1849 57.8094L66.5118 57.0055L68.9844 56.64L72.2605 56.2015L75.4749 55.8361L79.6164 55.4707L83.2634 55.2514L88.0231 55.1784L88.3322 55.1053H91.2374L92.721 55.1784L96.7389 55.4707L100.015 55.763L104.218 56.2015H105.578L105.764 56.1284L106.32 55.6169L106.567 55.2514L107 54.2283V53.4243L106.876 52.8397L106.505 52.255L105.702 51.6703L104.837 51.3049L103.291 51.0126L92.721 48.9662L84.6852 48.2354L84.1288 48.1623L79.1219 48.0161Z" fill="#FDC700"/>
<path d="M67.4391 0H72.0133L74.8567 0.146168L76.2785 0.292336L77.4529 0.584672L78.3801 1.02318L79.0601 1.46168L79.74 2.04635L80.3582 2.70411L80.9145 3.50803L81.4708 4.53121L81.9035 5.55438L82.398 7.16223L82.7071 8.55082L82.9544 10.3048L83.1398 12.205L83.2634 14.3245V17.1747L83.1398 19.3673L82.8926 22.0714L82.6453 23.7523L82.3362 25.1409L81.8417 26.6026L81.2854 27.7719L80.6054 28.7951L79.9873 29.599L79.3073 30.1106L78.1947 30.6953L77.082 31.0607L76.4021 31.2069L75.5367 31.2799L71.766 31.353L71.8278 48.0893L76.7112 48.1623V48.2354L72.0133 48.3085L71.9515 48.3816L68.799 48.5278L66.3264 48.6008L61.5049 48.8932L57.7961 49.2586L55.0763 49.5509L49.4512 50.2818L45.8042 50.7934L45.0006 50.8664L44.9388 48.6739L44.877 34.6418V7.81998L44.9388 1.02318L45.0006 0.146168L45.1242 0.073084H60.3923L60.7013 0.219252L60.7631 0.584672V9.86634L60.6395 10.0125L60.3923 10.0856H52.9746V20.2443H60.3304L60.3923 20.3173V29.6721L60.2686 29.8913L59.9596 29.9644L53.0364 30.0375V41.804H61.134L61.2577 42.4618L61.3195 46.7007L61.3813 48.6739L63.4211 48.4547H64.0393L63.9775 42.681L63.9157 34.2764V7.96615L63.9775 0.803924L64.0393 0.219252L64.1011 0.146168L65.0901 0.073084L67.4391 0Z" fill="#FDFDFC"/>
<path d="M8.8395 0H13.1665L16.5044 0.146168L17.9262 0.292336L18.7297 0.511588L19.7188 1.02318L20.5842 1.75402L21.0787 2.33869L21.635 3.28878L22.1295 4.38504L22.5622 5.77363L22.9331 7.52765L23.1185 8.91624L23.304 11.5473L23.3658 13.2282V14.9822L23.2422 17.4671L23.0567 19.148L22.8095 20.3904L22.5004 21.4867L22.0677 22.3637L21.4496 23.3138L20.8314 24.0446L20.0896 24.6293L19.7188 24.9947L20.4605 25.3601L21.1405 25.7986L21.635 26.4564L22.1295 27.4796L22.5004 28.5758L22.624 29.1605L22.7476 30.9145L22.8095 32.7416L22.8713 43.0465V51.8896L22.3149 51.9627L15.0827 51.8896L14.9591 51.7434L14.8973 51.3049L14.8355 30.1837L14.7118 29.3798L14.4028 28.9413L13.7846 28.5758L13.2283 28.3566L12.9192 28.2835H11.992V51.8165L11.8684 51.8896H4.20345L4.07982 51.8165L3.95619 51.4511L3.89438 50.5741L3.83257 46.7007L3.77075 29.6721V18.1979L3.83257 4.31195L3.89438 1.53476L3.95619 0.36542L4.07982 0.073084L8.8395 0Z" fill="#FDFDFC"/>
<path d="M87.8995 0.0731087H100.88L101.313 0.219277L101.437 0.803948L101.684 4.6774L102.302 13.1551L102.735 19.3673L103.291 26.8949L103.662 32.3031L104.28 40.3424L105.022 50.9395V51.4511L103.971 51.305L102.364 51.0126L100.015 50.6472L99.4587 50.501L97.6043 50.2087L97.4807 50.1356L97.2952 48.9663L97.048 44.362L96.9862 43.5581H95.6881L92.2265 43.6312L92.0411 48.0893V49.2586H91.2375L89.1358 49.0394L87.405 48.8932L86.2305 48.747L84.3761 48.6009L83.2017 48.4547V48.3816H84.3143V47.4315L84.8088 41.1463L85.2415 34.9342L85.6742 29.2336L86.1069 23.0215L86.6014 16.5901L86.9723 11.5473L87.3432 6.28525L87.8377 0.219277L87.8995 0.0731087Z" fill="#FDFDFC"/>
<path d="M45.1242 0.0731087H60.3923L60.7013 0.219277L60.7631 0.584696V9.86636L60.6395 10.0125L60.3923 10.0856H52.9746V20.2443H60.3304L60.3923 20.3174V29.6721L60.2686 29.8914L59.9596 29.9644L53.0364 30.0375V41.804H61.134L61.2577 42.4618L61.3195 46.7007L61.3813 48.6739L63.1121 48.5278V48.6009L63.792 48.6739V48.747L61.5049 48.8932L57.7961 49.2586L55.0763 49.5509L49.4512 50.2818L45.8042 50.7934L45.0006 50.8665L44.9388 48.6739L44.877 34.6418V7.82001L44.9388 1.0232L45.0006 0.146193L45.1242 0.0731087Z" fill="#FDFDFB"/>
<path d="M25.9 0.0731087H42.3425L42.4043 0.146193V7.01609L42.2807 9.13552L42.0334 10.3779L41.4771 12.2781L40.3026 16.5901L39.7463 18.7095L39.3136 20.2443L38.51 23.1676L37.7682 25.7987L36.7792 29.4529L35.9138 32.5955L33.3176 41.8041L33.0704 42.3887H41.7243L41.9716 42.6811L42.0334 45.239V51.305L41.4771 51.5242L39.6227 51.8166L39.0045 51.8896H25.1582L24.9109 51.5242L24.8491 51.305V44.2158L24.9109 42.2426L25.0346 41.5117L25.3436 40.7809L26.0854 37.9306L26.889 35.1534L28.9907 27.6989L29.8561 24.5562L31.0305 20.3174L32.0195 16.6632L33.194 12.4243L33.8121 9.93945L33.874 9.42786L32.8849 9.50094L27.9398 9.57403H26.0236L25.7145 9.42786V6.79683L25.8381 0.146193L25.9 0.0731087Z" fill="#FDFDFC"/>
<path d="M94.1428 9.06242L94.4519 9.20859L94.6373 9.72017L94.8228 11.328L95.1318 15.1284L95.6882 23.7523L96.1209 29.8913L96.3681 34.1302V35.2265H92.8447V34.2764L92.9684 32.0108L93.2774 26.6757L93.7101 18.4172L94.081 10.6703V9.20859L94.1428 9.06242Z" fill="#010000"/>
<path d="M72.137 9.42786H73.0642L73.7442 9.64711L74.2387 10.0125L74.6714 10.5972L75.0423 11.5473L75.2895 12.7166L75.4131 13.9591V17.394L75.2277 19.2942L75.0423 20.2443L74.6714 20.9751L74.115 21.5598L73.4969 21.9252L72.6933 22.1445L71.8279 22.2176L71.7661 22.1445V10.451L71.8279 9.57403L72.137 9.42786Z" fill="black"/>
<path d="M12.3629 9.57398H13.97L14.7118 9.79323L15.1445 10.2317L15.3918 11.0357L15.5154 12.205V16.1515L15.3299 17.7594L15.0827 18.4902L14.5882 19.0018L14.0937 19.2211L13.3519 19.3672H12.0538L11.9302 19.0018V11.9127L11.992 9.72015L12.3629 9.57398Z" fill="black"/>
<path d="M84.0137 68.1713V61.2279H82.9932V59.5775H86.7529V61.2279H85.7324V68.1713H84.0137ZM86.7314 68.1713V59.5775H89.3682C89.8076 59.5775 90.1396 59.6784 90.3643 59.8803C90.5889 60.0788 90.7386 60.3588 90.8135 60.7201C90.8916 61.0782 90.9307 61.4997 90.9307 61.9847C90.9307 62.4535 90.8704 62.8278 90.75 63.1078C90.6328 63.3877 90.4098 63.5814 90.0811 63.6889C90.3512 63.7442 90.54 63.8793 90.6475 64.0941C90.7581 64.3057 90.8135 64.5808 90.8135 64.9193V68.1713H89.1191V64.807C89.1191 64.5564 89.0671 64.4017 88.9629 64.3431C88.862 64.2813 88.6976 64.2504 88.4697 64.2504V68.1713H86.7314ZM88.4795 62.7611H88.8945C89.1322 62.7611 89.251 62.5023 89.251 61.9847C89.251 61.6495 89.2249 61.4297 89.1729 61.3256C89.1208 61.2214 89.0231 61.1693 88.8799 61.1693H88.4795V62.7611ZM90.9971 68.1713V59.5775H94.4346V61.2377H92.7451V62.9125H94.3662V64.5287H92.7451V66.4965H94.5469V68.1713H90.9971ZM94.6182 68.1713V59.5775H96.3857L97.1768 63.6937V59.5775H98.8369V68.1713H97.1572L96.2979 63.8744V68.1713H94.6182ZM99.0986 68.1713V59.5775H102.536V61.2377H100.847V62.9125H102.468V64.5287H100.847V66.4965H102.648V68.1713H99.0986ZM102.72 68.1713V59.5775H105.356C105.796 59.5775 106.128 59.6784 106.353 59.8803C106.577 60.0788 106.727 60.3588 106.802 60.7201C106.88 61.0782 106.919 61.4997 106.919 61.9847C106.919 62.4535 106.859 62.8278 106.738 63.1078C106.621 63.3877 106.398 63.5814 106.069 63.6889C106.34 63.7442 106.528 63.8793 106.636 64.0941C106.746 64.3057 106.802 64.5808 106.802 64.9193V68.1713H105.107V64.807C105.107 64.5564 105.055 64.4017 104.951 64.3431C104.85 64.2813 104.686 64.2504 104.458 64.2504V68.1713H102.72ZM104.468 62.7611H104.883C105.12 62.7611 105.239 62.5023 105.239 61.9847C105.239 61.6495 105.213 61.4297 105.161 61.3256C105.109 61.2214 105.011 61.1693 104.868 61.1693H104.468V62.7611Z" fill="white"/>
</svg>
