<svg width="259" height="282" viewBox="0 0 259 282" fill="none" xmlns="http://www.w3.org/2000/svg">
<path d="M105.864 0.920704C110.674 -0.100893 114.878 -0.259297 118.872 0.380665C122.851 1.01819 126.537 2.45927 129.44 4.78496C132.385 7.14392 134.32 10.2926 135.49 14.4305C136.656 18.551 137.02 23.5914 136.445 29.6434C135.862 35.7898 134.29 42.8124 124.877 67.3582C115.455 91.9254 98.1681 133.972 88.2499 157.424C81.2611 173.949 78.1699 180.658 76.3173 184.195C77.1753 183.878 78.053 183.564 78.9481 183.253C86.7058 180.551 95.3489 179.75 103.137 179.106C106.977 178.789 110.415 178.879 113.308 179.249C116.213 179.62 118.594 180.378 120.3 181.517C122.067 182.699 123.08 184.309 123.139 186.236C123.17 187.298 122.888 188.325 121.924 189.66C121.015 190.918 119.445 192.528 116.82 194.838C114.184 197.157 110.404 200.243 106.534 203.407C102.649 206.584 98.6668 209.847 95.579 212.555C89.4288 217.95 87.1858 220.863 85.6786 223.272C84.1249 225.756 83.4487 227.585 83.2772 228.71C83.2357 228.983 83.2323 229.164 83.2431 229.28C83.2482 229.336 83.256 229.372 83.2616 229.391C83.2644 229.401 83.267 229.407 83.2685 229.411C83.2695 229.414 83.2704 229.416 83.2704 229.416C83.2704 229.416 83.2709 229.417 83.2724 229.419C83.2755 229.422 83.2871 229.434 83.3124 229.452C83.3671 229.492 83.4801 229.557 83.6942 229.631C84.9924 230.076 86.7981 230.174 89.1562 229.991C91.4914 229.81 94.1963 229.37 97.2353 228.859C102.451 227.982 108.076 225.76 113.996 222.832C114.358 219.972 115.032 217.036 116.004 214.156C117.382 210.073 119.302 206.215 121.378 202.924C123.452 199.636 125.657 196.928 128.13 194.853C130.604 192.778 133.246 191.397 135.97 190.625C138.678 189.857 141.35 189.708 143.635 189.866C145.881 190.021 147.873 190.473 149.268 191.244C149.982 191.638 150.607 192.148 151.038 192.838C151.478 193.541 151.645 194.317 151.625 195.111C151.585 196.656 150.861 198.335 149.464 200.209C148.077 202.069 146.024 204.287 143.195 206.673C137.233 211.701 130.031 217.642 121.512 222.292C119.939 223.15 118.368 223.982 116.807 224.777C116.758 225.352 116.724 225.922 116.704 226.485C116.577 230.096 117.061 233.303 118.034 236.229C119.01 239.165 120.455 241.689 122.151 243.549C123.849 245.41 125.647 246.417 127.446 246.551C129.226 246.683 131.28 245.951 134.012 243.952C136.698 241.986 139.803 238.943 144.35 233.043C148.905 227.133 154.76 218.516 158.965 211.956C165.748 201.373 169.275 193.919 171.619 188.997C172.108 187.97 172.547 187.2 172.939 186.652C173.135 186.379 173.342 186.13 173.56 185.926C173.756 185.742 174.076 185.486 174.507 185.369L174.612 185.344C174.746 185.316 174.96 185.29 175.212 185.333C175.611 185.401 175.957 185.617 176.195 185.925C176.398 186.186 176.476 186.452 176.51 186.603C176.546 186.767 176.559 186.922 176.563 187.044C176.58 187.486 176.508 188.164 176.36 189.168C176.054 191.25 175.341 195.239 173.888 202.83C170.974 218.048 165.078 247.76 162.13 263.668C161.35 267.876 160.792 271.037 160.406 273.405C161.558 270.395 163.162 265.897 165.425 259.171C171.717 240.464 183.025 204.764 189.307 185.309C190.187 182.583 190.962 180.199 191.642 178.115C194.165 169.389 195.763 165.558 196.14 164.626C196.163 164.567 196.178 164.532 196.193 164.494C196.199 164.48 196.207 164.458 196.216 164.438C196.217 164.436 196.232 164.401 196.251 164.361C196.257 164.349 196.268 164.324 196.285 164.293C196.288 164.287 196.344 164.181 196.437 164.066C196.51 163.983 196.792 163.747 197.02 163.627C197.633 163.51 198.697 163.984 198.999 164.461C199.064 164.672 199.102 164.989 199.1 165.088C199.097 165.141 199.087 165.228 199.082 165.262C199.072 165.321 199.059 165.368 199.056 165.383C199.05 165.404 199.046 165.421 199.043 165.43C199.037 165.45 199.033 165.466 199.03 165.473C199.025 165.49 199.019 165.504 199.016 165.512C199.01 165.531 199.003 165.553 198.995 165.575C198.979 165.62 198.955 165.69 198.924 165.779C198.796 166.142 198.525 166.917 198.046 168.327C197.357 170.355 196.24 173.698 194.502 179.023C194.438 179.245 194.372 179.47 194.307 179.699C191.686 188.866 188.144 203.149 185.672 214.313C183.2 225.474 181.915 233.038 181.366 238.073C181.089 240.612 181.021 242.36 181.121 243.471C181.134 243.616 181.15 243.743 181.167 243.853C181.281 243.752 181.412 243.628 181.557 243.474C182.297 242.684 183.228 241.374 184.284 239.517C186.368 235.855 188.781 230.313 195.1 211.258C196.871 205.914 198.941 199.528 201.141 192.645C201.419 185.93 202.091 178.314 203.258 169.934C205.024 157.253 207.838 143.23 212.916 126.135C217.987 109.061 225.101 89.5175 228.84 79.4891C230.705 74.4852 231.745 71.8096 232.339 70.4373C232.61 69.8114 232.857 69.2877 233.107 68.9656C233.178 68.875 233.316 68.708 233.529 68.5652C233.751 68.4165 234.209 68.1971 234.786 68.3426C235.329 68.4797 235.614 68.8534 235.722 69.0213C235.836 69.1996 235.892 69.3658 235.916 69.4383C236.025 69.7758 236.045 70.1325 236.044 70.4549C236.042 70.7993 236.013 71.2356 235.956 71.7928C235.842 72.9104 235.603 74.6445 235.175 77.368C234.317 82.8268 232.73 92.0959 230.857 101.196C228.979 110.325 226.877 119.006 220.622 139.956C216.16 154.901 209.733 175.612 204.122 193.174C203.995 196.405 203.961 199.416 204.011 202.189C204.162 210.717 205.104 216.638 206.317 220.762C207.533 224.895 208.955 226.912 210.201 227.941C210.822 228.454 211.35 228.675 211.809 228.741C212.265 228.807 212.783 228.738 213.418 228.455C214.718 227.875 216.279 226.464 217.713 224.09C219.112 221.773 220.307 218.642 222.177 210.836C222.493 209.516 222.824 208.07 223.16 206.574C223.22 206.256 223.278 205.934 223.34 205.611C224.093 201.694 224.998 197.288 225.687 194.039C226.032 192.415 226.323 191.074 226.516 190.224C226.61 189.809 226.687 189.484 226.735 189.304C226.747 189.261 226.764 189.197 226.785 189.134C226.791 189.115 226.82 189.027 226.87 188.927C226.881 188.905 226.967 188.721 227.141 188.542C227.217 188.463 227.478 188.206 227.919 188.116C228.511 187.995 229.024 188.245 229.325 188.573C229.554 188.823 229.635 189.082 229.659 189.166C229.692 189.278 229.705 189.371 229.711 189.42C229.722 189.518 229.72 189.597 229.72 189.628C229.718 189.698 229.713 189.757 229.71 189.782C229.704 189.841 229.694 189.903 229.686 189.954C229.601 190.503 229.2 192.557 228.635 195.324C230.665 189.927 232.703 185.899 234.656 183.471C235.658 182.225 236.707 181.301 237.808 180.817C238.968 180.307 240.182 180.298 241.27 180.896C242.292 181.458 243.001 182.435 243.489 183.587C243.979 184.742 244.299 186.192 244.474 187.902C244.823 191.325 244.625 195.933 243.657 201.142C242.69 206.35 240.999 212.013 239.077 217.08C237.158 222.139 235.045 226.543 233.003 229.69C230.99 232.791 228.968 234.828 226.902 235.625C226.275 235.867 225.573 236.017 224.867 236.012C224.943 236.822 225.041 237.592 225.163 238.316C225.623 241.04 226.402 242.904 227.342 244.077C228.242 245.201 229.32 245.738 230.613 245.804C231.97 245.872 233.676 245.402 235.68 244.346C237.664 243.299 239.823 241.742 242.05 239.807C246.51 235.932 250.958 230.753 255.638 225.299C256.177 224.67 257.124 224.597 257.753 225.137C258.381 225.676 258.453 226.623 257.914 227.252C253.274 232.659 248.677 238.023 244.017 242.072C241.684 244.1 239.332 245.811 237.078 246.999C234.843 248.177 232.58 248.906 230.463 248.8C228.282 248.69 226.417 247.721 225 245.952C223.622 244.232 222.711 241.814 222.205 238.816C221.978 237.474 221.828 236.002 221.746 234.435C221.459 234.009 221.251 233.504 221.143 232.927C220.763 230.874 220.632 228.158 220.787 224.749C220.621 225.057 220.454 225.354 220.281 225.64C218.66 228.324 216.692 230.28 214.64 231.195C213.598 231.659 212.507 231.873 211.382 231.711C210.26 231.549 209.235 231.033 208.291 230.254C206.408 228.699 204.747 226.052 203.439 221.608C202.157 217.251 201.209 211.218 201.024 202.801C199.93 206.177 198.897 209.338 197.947 212.202C191.638 231.231 189.143 237.044 186.892 241.001C185.782 242.953 184.716 244.491 183.745 245.526C183.263 246.04 182.751 246.488 182.218 246.789C181.7 247.081 180.97 247.339 180.175 247.123C179.344 246.897 178.854 246.275 178.585 245.688C178.325 245.122 178.197 244.445 178.134 243.74C178.005 242.317 178.103 240.322 178.384 237.748C178.845 233.51 179.803 227.612 181.49 219.491C176.679 234.488 171.72 249.863 168.267 260.127C165.119 269.487 163.22 274.631 162.01 277.473C161.409 278.884 160.949 279.799 160.559 280.394C160.17 280.989 159.716 281.475 159.054 281.684C158.834 281.754 158.21 281.915 157.575 281.523C156.98 281.156 156.804 280.56 156.741 280.271C156.611 279.676 156.648 278.822 156.763 277.721C157.004 275.396 157.707 271.066 159.18 263.121C162.129 247.209 168.037 217.437 170.941 202.265C171.588 198.889 172.083 196.238 172.462 194.158C170.124 198.926 166.782 205.319 161.49 213.575C157.262 220.171 151.355 228.869 146.726 234.875C142.091 240.89 138.787 244.174 135.783 246.373C132.824 248.539 130.051 249.753 127.224 249.543C124.415 249.334 121.955 247.785 119.934 245.57C117.913 243.354 116.275 240.445 115.187 237.176C114.097 233.896 113.567 230.332 113.706 226.38C113.707 226.355 113.708 226.331 113.709 226.306C108.215 228.925 102.841 230.959 97.7333 231.818C94.7177 232.325 91.8792 232.789 89.3876 232.982C86.9187 233.174 84.6131 233.117 82.7206 232.468C81.9085 232.189 81.1104 231.72 80.6376 230.853C80.1829 230.02 80.1837 229.096 80.3114 228.258C80.5695 226.564 81.4747 224.337 83.1356 221.681C84.8432 218.951 87.3057 215.821 93.6005 210.3C96.7351 207.55 100.762 204.252 104.636 201.084C108.525 197.903 112.253 194.859 114.839 192.585C117.436 190.3 118.791 188.873 119.492 187.903C120.137 187.011 120.148 186.62 120.14 186.326C120.116 185.541 119.749 184.757 118.633 184.012C117.455 183.224 115.577 182.563 112.928 182.224C110.264 181.884 107.036 181.795 103.384 182.096C95.5543 182.743 87.281 183.527 79.9354 186.086C77.7461 186.848 75.716 187.605 73.8612 188.375C72.3435 190.716 71.0045 192.449 69.4706 193.861C67.7443 195.451 65.8602 196.54 64.2538 197.177C63.7012 197.395 63.1241 197.581 62.581 197.682C61.7342 201.389 60.8621 204.518 59.9345 207.448C57.8757 213.952 55.6066 219.264 53.1366 223.61C50.6634 227.963 48.0234 231.247 44.7177 233.716C41.4199 236.178 37.6171 237.673 33.912 238.44C30.1851 239.212 26.5646 239.223 22.9306 238.159C19.3206 237.102 15.8832 235.007 13.0936 232.505C10.2706 229.973 8.19487 227.07 6.38271 223.382C4.57454 219.701 3.07809 215.301 1.95009 209.916C0.822118 204.531 0.102807 198.271 0.00966407 191.528C-0.0839602 184.75 0.478045 177.693 2.7792 165.078C5.07635 152.484 9.10324 134.49 13.2479 120.331C17.4025 106.138 21.5522 96.3505 26.1435 86.7508C30.7281 77.1649 35.6388 68.038 40.8915 59.3807C46.1446 50.7226 51.5933 42.8053 57.1317 35.7605C62.6704 28.7155 68.1488 22.7636 73.7323 17.8748C79.3228 12.98 84.8413 9.34211 90.3173 6.55547C95.7914 3.76979 101.066 1.93971 105.864 0.920704ZM118.397 3.34258C114.827 2.77048 111 2.89686 106.487 3.85527C101.962 4.81638 96.9339 6.55447 91.6776 9.2293C86.4235 11.9031 81.1121 15.4009 75.7089 20.1316C70.2985 24.8688 64.9455 30.6759 59.4901 37.615C54.0346 44.5545 48.6545 52.371 43.4569 60.9373C38.259 69.5043 33.3942 78.5433 28.8495 88.0457C24.3115 97.5342 20.2264 107.169 16.1269 121.174C12.0173 135.212 8.01298 153.103 5.73037 165.617C3.45187 178.108 2.91956 184.961 3.00966 191.486C3.10029 198.047 3.80031 204.115 4.88662 209.301C5.97283 214.486 7.39638 218.641 9.07509 222.058C10.75 225.468 12.6092 228.04 15.0966 230.271C17.6174 232.532 20.6699 234.371 23.7733 235.28C26.8527 236.182 29.9657 236.194 33.3036 235.503C36.6635 234.807 40.0399 233.464 42.9227 231.311C45.7977 229.165 48.1882 226.246 50.5282 222.128C52.8715 218.004 55.0642 212.895 57.0751 206.543C58.0122 203.582 58.8942 200.402 59.7558 196.572C59.6714 196.373 59.6198 196.156 59.6063 195.927C59.574 195.373 59.7736 194.88 59.9315 194.562C60.0435 194.337 60.1816 194.111 60.3349 193.887C61.1142 190.097 61.8806 185.683 62.6513 180.315C64.4566 167.741 66.2372 150.49 67.2108 133.382C68.1845 116.273 68.3463 99.8008 68.3856 90.826C68.4249 81.8482 68.3439 80.467 68.2655 79.0965C68.2185 78.2696 68.8507 77.5608 69.6776 77.5135C70.5045 77.4664 71.2133 78.0987 71.2606 78.9256C71.3445 80.3934 71.425 81.8513 71.3856 90.8387C71.3463 99.8292 71.1841 116.363 70.206 133.552C69.2277 150.74 67.4392 168.077 65.621 180.741C65.1148 184.266 64.6077 187.392 64.0985 190.207C66.2304 188.635 68.8553 187.256 71.8358 185.972C71.8601 185.934 71.8857 185.896 71.9101 185.857C73.5797 183.195 75.5635 179.72 85.4872 156.255C95.3998 132.816 112.671 90.8054 122.075 66.284C131.487 41.7415 132.918 35.0587 133.459 29.3602C134.009 23.5673 133.642 18.917 132.603 15.2469C131.57 11.5942 129.936 9.02499 127.565 7.12578C125.153 5.19328 121.983 3.9172 118.397 3.34258ZM239.824 183.525C239.662 183.436 239.44 183.376 239.015 183.563C238.529 183.776 237.842 184.296 236.994 185.35C235.299 187.457 233.338 191.267 231.284 196.802C229.244 202.298 227.223 209.24 225.952 216.935C225.042 222.446 224.561 228.175 224.693 232.997C224.967 233.035 225.36 233.005 225.823 232.826C226.983 232.379 228.57 231.009 230.486 228.057C232.372 225.152 234.396 220.96 236.271 216.015C238.144 211.079 239.78 205.591 240.708 200.595C241.636 195.6 241.803 191.285 241.489 188.207C241.332 186.667 241.059 185.539 240.727 184.758C240.394 183.972 240.053 183.651 239.824 183.525ZM143.428 192.859C141.421 192.72 139.104 192.854 136.788 193.511C134.488 194.162 132.221 195.336 130.058 197.151C127.893 198.967 125.88 201.409 123.915 204.524C121.952 207.636 120.14 211.28 118.846 215.116C118.168 217.123 117.649 219.151 117.289 221.149C118.211 220.665 119.14 220.168 120.074 219.658C128.301 215.168 135.301 209.406 141.262 204.38C143.943 202.119 145.829 200.064 147.058 198.415C148.278 196.78 148.609 195.701 148.626 195.035C148.634 194.724 148.571 194.551 148.494 194.429C148.408 194.291 148.228 194.096 147.818 193.87C146.968 193.401 145.473 193.001 143.428 192.859ZM67.6962 191.411C66.5787 192.089 65.5878 192.792 64.7343 193.535C64.6477 193.61 64.5628 193.685 64.4804 193.76C65.4399 193.243 66.4687 192.548 67.4384 191.655C67.5249 191.575 67.6104 191.494 67.6962 191.411ZM231.597 80.6824C227.847 90.7426 220.808 110.101 215.792 126.989C210.758 143.937 207.974 157.812 206.228 170.348C205.743 173.836 205.347 177.187 205.027 180.39C209.581 165.943 214.265 150.762 217.747 139.098C223.987 118.199 226.063 109.607 227.919 100.592C229.399 93.4021 230.697 86.0998 231.597 80.6824Z" fill="#FFDF20"/>
</svg>
