<svg width="339" height="362" viewBox="0 0 339 362" fill="none" xmlns="http://www.w3.org/2000/svg">
<g filter="url(#filter0_d_821_38)">
<path d="M109.763 115.011C109.844 116.431 109.925 117.85 109.886 126.833C109.847 135.815 109.684 152.318 108.708 169.467C107.733 186.615 105.948 203.909 104.136 216.528C102.324 229.148 100.54 236.568 98.5048 242.996C96.4699 249.424 94.2391 254.634 91.8324 258.869C89.4258 263.104 86.911 266.206 83.8206 268.514C80.7303 270.821 77.1406 272.241 73.608 272.972C70.0755 273.703 66.7089 273.703 63.3522 272.719C59.9954 271.736 56.7505 269.77 54.0952 267.388C51.44 265.006 49.4728 262.269 47.7293 258.72C45.9857 255.172 44.5255 250.894 43.4184 245.608C42.3112 240.323 41.6014 234.16 41.5095 227.507C41.4176 220.855 41.9652 213.901 44.2551 201.348C46.545 188.794 50.5606 170.851 54.6877 156.753C58.8148 142.654 62.9318 132.942 67.4965 123.398C72.0612 113.854 76.9488 104.771 82.1742 96.159C87.3996 87.5468 92.8145 79.6804 98.3115 72.6883C103.808 65.6962 109.223 59.8167 114.72 55.0037C120.217 50.1908 125.632 46.6225 130.998 43.8923C136.363 41.162 141.514 39.3779 146.176 38.3878C150.837 37.3978 154.853 37.2558 158.635 37.8619C162.417 38.468 165.845 39.8263 168.503 41.9554C171.161 44.0845 172.945 46.9432 174.047 50.8386C175.149 54.734 175.514 59.5795 174.952 65.502C174.39 71.4245 172.889 78.2772 163.476 102.822C154.063 127.366 136.784 169.394 126.869 192.839C116.953 216.285 114.925 219.873 113.181 222.654C111.437 225.436 110.037 227.301 108.454 228.758C106.871 230.216 105.148 231.209 103.702 231.782C102.256 232.355 101.141 232.476 101.103 231.839C101.066 231.203 102.141 229.804 103.749 228.404C107.241 225.365 112.723 223.009 119.442 220.669C126.994 218.039 135.452 217.247 143.261 216.602C147.007 216.292 150.339 216.382 153.117 216.737C155.895 217.092 158.025 217.801 159.467 218.765C160.909 219.729 161.598 220.925 161.639 222.281C161.68 223.637 161.051 225.117 155.829 229.712C150.608 234.306 140.812 241.969 134.59 247.428C128.367 252.886 126.015 255.907 124.407 258.477C122.8 261.047 122.009 263.074 121.794 264.484C121.579 265.893 121.965 266.623 123.208 267.049C126.398 268.145 131.43 267.358 137.484 266.339C144.723 265.121 152.619 261.436 160.793 256.975C169.166 252.405 176.267 246.554 182.228 241.526C184.984 239.203 186.953 237.067 188.261 235.312C189.569 233.557 190.097 232.179 190.125 231.073C190.153 229.968 189.667 229.177 188.544 228.557C187.421 227.937 185.677 227.511 183.531 227.362C181.385 227.214 178.891 227.356 176.379 228.068C173.867 228.78 171.413 230.057 169.094 232.002C166.775 233.948 164.666 236.522 162.646 239.724C160.627 242.926 158.761 246.677 157.425 250.636C156.088 254.596 155.338 258.651 155.205 262.432C155.072 266.214 155.579 269.6 156.611 272.703C157.643 275.805 159.184 278.522 161.043 280.56C162.902 282.598 165.031 283.875 167.335 284.047C169.638 284.218 172.052 283.245 174.897 281.162C177.743 279.08 180.947 275.917 185.539 269.959C190.13 264.001 196.011 255.344 200.228 248.766C207.062 238.103 210.62 230.584 212.973 225.642C213.911 223.673 214.555 222.91 214.899 222.817C215.242 222.724 215.324 223.353 212.414 238.548C209.505 253.743 203.604 283.485 200.655 299.394C197.706 315.304 197.888 316.48 198.601 316.255C199.313 316.029 200.551 314.367 206.846 295.649C213.142 276.931 224.458 241.208 230.734 221.771C237.01 202.334 237.903 200.266 237.531 201.188C237.159 202.109 235.496 206.083 232.865 215.287C230.234 224.491 226.684 238.804 224.207 249.989C221.73 261.175 220.432 268.798 219.875 273.911C219.318 279.024 219.541 281.396 220.568 281.675C221.596 281.954 223.421 280.069 225.588 276.259C227.756 272.449 230.21 266.773 236.524 247.73C242.838 228.688 252.937 196.452 259.185 175.527C265.432 154.603 267.521 145.966 269.388 136.894C271.255 127.822 272.837 118.577 273.693 113.135C274.548 107.694 274.629 106.335 274.488 105.899C274.348 105.463 273.983 105.99 270.246 116.014C266.508 126.037 259.41 145.541 254.354 162.562C249.298 179.584 246.499 193.533 244.743 206.142C242.987 218.751 242.358 229.597 242.511 238.216C242.664 246.835 243.617 252.897 244.879 257.185C246.14 261.474 247.682 263.805 249.246 265.098C250.811 266.39 252.352 266.572 254.029 265.825C255.705 265.078 257.469 263.395 258.997 260.866C260.524 258.336 261.761 255.011 263.636 247.186C265.51 239.36 267.985 227.135 268.205 225.723C268.425 224.311 266.315 234.083 264.813 241.895C262.25 255.22 261.744 263.945 262.618 268.653C262.965 270.524 264.749 270.847 266.362 270.225C267.975 269.604 269.78 267.901 271.744 264.874C273.709 261.848 275.777 257.55 277.674 252.548C279.572 247.546 281.235 241.971 282.183 236.868C283.131 231.766 283.313 227.306 282.981 224.055C282.649 220.804 281.798 218.899 280.548 218.211C279.297 217.523 277.675 218.111 275.825 220.411C273.975 222.711 271.947 226.705 269.878 232.28C267.809 237.855 265.761 244.89 264.473 252.691C263.184 260.491 262.718 268.844 263.684 274.567C264.651 280.289 267.064 283.127 270.538 283.302C274.012 283.477 278.474 280.902 283.034 276.94C287.593 272.978 292.116 267.707 296.776 262.276" stroke="#FFDF20" stroke-width="3" stroke-linecap="round" stroke-linejoin="round" shape-rendering="crispEdges"/>
</g>
<defs>
<filter id="filter0_d_821_38" x="0" y="0" width="338.276" height="361.777" filterUnits="userSpaceOnUse" color-interpolation-filters="sRGB">
<feFlood flood-opacity="0" result="BackgroundImageFix"/>
<feColorMatrix in="SourceAlpha" type="matrix" values="0 0 0 0 0 0 0 0 0 0 0 0 0 0 0 0 0 0 127 0" result="hardAlpha"/>
<feOffset dy="4"/>
<feGaussianBlur stdDeviation="20"/>
<feComposite in2="hardAlpha" operator="out"/>
<feColorMatrix type="matrix" values="0 0 0 0 0.986666 0 0 0 0 0.921016 0 0 0 0 0.921016 0 0 0 0.5 0"/>
<feBlend mode="normal" in2="BackgroundImageFix" result="effect1_dropShadow_821_38"/>
<feBlend mode="normal" in="SourceGraphic" in2="effect1_dropShadow_821_38" result="shape"/>
</filter>
</defs>
</svg>
