<svg width="1440" height="698" viewBox="0 0 1440 698" fill="none" xmlns="http://www.w3.org/2000/svg">
<g opacity="0.6" filter="url(#filter0_f_716_61)">
<mask id="path-1-outside-1_716_61" maskUnits="userSpaceOnUse" x="-84" y="3.5" width="1627" height="690" fill="black">
<rect fill="white" x="-84" y="3.5" width="1627" height="690"/>
<path d="M-82.5312 692.5V5H128.406C163.562 5 190.125 13.0729 208.094 29.2188C226.062 45.1042 238.042 67.5 244.031 96.4062C250.281 125.052 253.406 158.776 253.406 197.578C253.406 235.078 248.589 265.026 238.953 287.422C229.578 309.818 211.74 325.312 185.438 333.906C207.052 338.333 222.156 349.141 230.75 366.328C239.604 383.255 244.031 405.26 244.031 432.344V692.5H108.484V423.359C108.484 403.307 104.318 390.938 95.9844 386.25C87.9115 381.302 74.7604 378.828 56.5312 378.828V692.5H-82.5312ZM57.3125 259.688H90.5156C109.526 259.688 119.031 238.984 119.031 197.578C119.031 170.755 116.948 153.177 112.781 144.844C108.615 136.51 100.802 132.344 89.3438 132.344H57.3125V259.688ZM248.75 692.5V567.5L406.172 131.562H263.984V5H551.094V125.312L390.938 565.938H544.453V692.5H248.75ZM562.844 692.5V5H837.844V137.812H702.688V271.797H832.375V401.094H702.688V558.516H846.828V692.5H562.844ZM860.531 692.5V5H1042.17C1080.19 5 1110.27 13.4635 1132.41 30.3906C1154.8 47.3177 1170.82 71.4062 1180.45 102.656C1190.09 133.906 1194.91 171.146 1194.91 214.375C1194.91 256.042 1190.87 292.37 1182.8 323.359C1174.72 354.089 1160.27 377.917 1139.44 394.844C1118.86 411.771 1089.57 420.234 1051.55 420.234H995.688V692.5H860.531ZM995.688 296.797H1003.5C1029.02 296.797 1044.65 289.635 1050.38 275.312C1056.1 260.99 1058.97 239.896 1058.97 212.031C1058.97 185.99 1056.1 165.938 1050.38 151.875C1044.91 137.552 1031.76 130.391 1010.92 130.391H995.688V296.797ZM1176.19 692.5L1242.59 5H1475.8L1541.03 692.5H1410.95L1401.19 581.562H1318.38L1309.78 692.5H1176.19ZM1328.14 471.797H1390.64L1360.56 122.188H1354.31L1328.14 471.797Z"/>
</mask>
<path d="M-82.5312 692.5H-83.5312V693.5H-82.5312V692.5ZM-82.5312 5V4H-83.5312V5H-82.5312ZM208.094 29.2188L207.425 29.9626L207.431 29.968L208.094 29.2188ZM244.031 96.4062L243.052 96.6092L243.054 96.6194L244.031 96.4062ZM238.953 287.422L238.034 287.027L238.031 287.036L238.953 287.422ZM185.438 333.906L185.127 332.956L181.538 334.128L185.237 334.886L185.438 333.906ZM230.75 366.328L229.856 366.775L229.86 366.784L229.864 366.792L230.75 366.328ZM244.031 692.5V693.5H245.031V692.5H244.031ZM108.484 692.5H107.484V693.5H108.484V692.5ZM95.9844 386.25L95.4618 387.103L95.4778 387.112L95.4941 387.122L95.9844 386.25ZM56.5312 378.828V377.828H55.5312V378.828H56.5312ZM56.5312 692.5V693.5H57.5312V692.5H56.5312ZM57.3125 259.688H56.3125V260.688H57.3125V259.688ZM57.3125 132.344V131.344H56.3125V132.344H57.3125ZM-82.5312 692.5H-81.5312V5H-82.5312H-83.5312V692.5H-82.5312ZM-82.5312 5V6H128.406V5V4H-82.5312V5ZM128.406 5V6C163.426 6 189.708 14.0431 207.425 29.9626L208.094 29.2188L208.762 28.4749C190.542 12.1028 163.699 4 128.406 4V5ZM208.094 29.2188L207.431 29.968C225.204 45.6799 237.096 67.8646 243.052 96.6091L244.031 96.4062L245.01 96.2034C238.987 67.1354 226.921 44.5284 208.756 28.4695L208.094 29.2188ZM244.031 96.4062L243.054 96.6194C249.285 125.177 252.406 158.826 252.406 197.578H253.406H254.406C254.406 158.726 251.278 124.927 245.008 96.1931L244.031 96.4062ZM253.406 197.578H252.406C252.406 235.008 247.595 264.804 238.035 287.027L238.953 287.422L239.872 287.817C249.582 265.248 254.406 235.148 254.406 197.578H253.406ZM238.953 287.422L238.031 287.036C228.784 309.124 211.196 324.438 185.127 332.956L185.438 333.906L185.748 334.857C212.283 326.187 230.372 310.511 239.876 287.808L238.953 287.422ZM185.438 333.906L185.237 334.886C206.601 339.262 221.421 349.905 229.856 366.775L230.75 366.328L231.644 365.881C222.892 348.376 207.503 337.405 185.638 332.927L185.438 333.906ZM230.75 366.328L229.864 366.792C238.619 383.529 243.031 405.359 243.031 432.344H244.031H245.031C245.031 405.162 240.59 382.982 231.636 365.865L230.75 366.328ZM244.031 432.344H243.031V692.5H244.031H245.031V432.344H244.031ZM244.031 692.5V691.5H108.484V692.5V693.5H244.031V692.5ZM108.484 692.5H109.484V423.359H108.484H107.484V692.5H108.484ZM108.484 423.359H109.484C109.484 413.277 108.438 405.051 106.307 398.724C104.174 392.391 100.925 387.882 96.4746 385.378L95.9844 386.25L95.4941 387.122C99.3772 389.306 102.378 393.325 104.412 399.362C106.447 405.405 107.484 413.39 107.484 423.359H108.484ZM95.9844 386.25L96.5069 385.397C88.1884 380.299 74.8023 377.828 56.5312 377.828V378.828V379.828C74.7185 379.828 87.6346 382.305 95.4618 387.103L95.9844 386.25ZM56.5312 378.828H55.5312V692.5H56.5312H57.5312V378.828H56.5312ZM56.5312 692.5V691.5H-82.5312V692.5V693.5H56.5312V692.5ZM57.3125 259.688V260.688H90.5156V259.688V258.688H57.3125V259.688ZM90.5156 259.688V260.688C95.4617 260.688 99.8298 259.337 103.579 256.615C107.317 253.901 110.384 249.865 112.811 244.577C117.655 234.028 120.031 218.326 120.031 197.578H119.031H118.031C118.031 218.236 115.655 233.589 110.994 243.743C108.668 248.807 105.794 252.535 102.404 254.996C99.0238 257.45 95.0748 258.688 90.5156 258.688V259.688ZM119.031 197.578H120.031C120.031 184.145 119.51 173.002 118.462 164.16C117.416 155.34 115.838 148.722 113.676 144.397L112.781 144.844L111.887 145.291C113.891 149.299 115.438 155.637 116.476 164.395C117.511 173.131 118.031 184.188 118.031 197.578H119.031ZM112.781 144.844L113.676 144.397C109.297 135.64 101.076 131.344 89.3438 131.344V132.344V133.344C100.528 133.344 107.932 137.381 111.887 145.291L112.781 144.844ZM89.3438 132.344V131.344H57.3125V132.344V133.344H89.3438V132.344ZM57.3125 132.344H56.3125V259.688H57.3125H58.3125V132.344H57.3125ZM248.75 692.5H247.75V693.5H248.75V692.5ZM248.75 567.5L247.809 567.16L247.75 567.325V567.5H248.75ZM406.172 131.562L407.112 131.902L407.596 130.562H406.172V131.562ZM263.984 131.562H262.984V132.562H263.984V131.562ZM263.984 5V4H262.984V5H263.984ZM551.094 5H552.094V4H551.094V5ZM551.094 125.312L552.034 125.654L552.094 125.489V125.312H551.094ZM390.938 565.938L389.998 565.596L389.51 566.938H390.938V565.938ZM544.453 565.938H545.453V564.938H544.453V565.938ZM544.453 692.5V693.5H545.453V692.5H544.453ZM248.75 692.5H249.75V567.5H248.75H247.75V692.5H248.75ZM248.75 567.5L249.691 567.84L407.112 131.902L406.172 131.562L405.231 131.223L247.809 567.16L248.75 567.5ZM406.172 131.562V130.562H263.984V131.562V132.562H406.172V131.562ZM263.984 131.562H264.984V5H263.984H262.984V131.562H263.984ZM263.984 5V6H551.094V5V4H263.984V5ZM551.094 5H550.094V125.312H551.094H552.094V5H551.094ZM551.094 125.312L550.154 124.971L389.998 565.596L390.938 565.938L391.877 566.279L552.034 125.654L551.094 125.312ZM390.938 565.938V566.938H544.453V565.938V564.938H390.938V565.938ZM544.453 565.938H543.453V692.5H544.453H545.453V565.938H544.453ZM544.453 692.5V691.5H248.75V692.5V693.5H544.453V692.5ZM562.844 692.5H561.844V693.5H562.844V692.5ZM562.844 5V4H561.844V5H562.844ZM837.844 5H838.844V4H837.844V5ZM837.844 137.812V138.812H838.844V137.812H837.844ZM702.688 137.812V136.812H701.688V137.812H702.688ZM702.688 271.797H701.688V272.797H702.688V271.797ZM832.375 271.797H833.375V270.797H832.375V271.797ZM832.375 401.094V402.094H833.375V401.094H832.375ZM702.688 401.094V400.094H701.688V401.094H702.688ZM702.688 558.516H701.688V559.516H702.688V558.516ZM846.828 558.516H847.828V557.516H846.828V558.516ZM846.828 692.5V693.5H847.828V692.5H846.828ZM562.844 692.5H563.844V5H562.844H561.844V692.5H562.844ZM562.844 5V6H837.844V5V4H562.844V5ZM837.844 5H836.844V137.812H837.844H838.844V5H837.844ZM837.844 137.812V136.812H702.688V137.812V138.812H837.844V137.812ZM702.688 137.812H701.688V271.797H702.688H703.688V137.812H702.688ZM702.688 271.797V272.797H832.375V271.797V270.797H702.688V271.797ZM832.375 271.797H831.375V401.094H832.375H833.375V271.797H832.375ZM832.375 401.094V400.094H702.688V401.094V402.094H832.375V401.094ZM702.688 401.094H701.688V558.516H702.688H703.688V401.094H702.688ZM702.688 558.516V559.516H846.828V558.516V557.516H702.688V558.516ZM846.828 558.516H845.828V692.5H846.828H847.828V558.516H846.828ZM846.828 692.5V691.5H562.844V692.5V693.5H846.828V692.5ZM860.531 692.5H859.531V693.5H860.531V692.5ZM860.531 5V4H859.531V5H860.531ZM1132.41 30.3906L1131.8 31.185L1131.8 31.1884L1132.41 30.3906ZM1182.8 323.359L1183.76 323.613L1183.76 323.611L1182.8 323.359ZM1139.44 394.844L1138.81 394.068L1138.8 394.072L1139.44 394.844ZM995.688 420.234V419.234H994.688V420.234H995.688ZM995.688 692.5V693.5H996.688V692.5H995.688ZM995.688 296.797H994.688V297.797H995.688V296.797ZM1050.38 151.875L1049.44 152.232L1049.44 152.242L1049.45 152.252L1050.38 151.875ZM995.688 130.391V129.391H994.688V130.391H995.688ZM860.531 692.5H861.531V5H860.531H859.531V692.5H860.531ZM860.531 5V6H1042.17V5V4H860.531V5ZM1042.17 5V6C1080.05 6 1109.89 14.4324 1131.8 31.185L1132.41 30.3906L1133.01 29.5963C1110.65 12.4947 1080.33 4 1042.17 4V5ZM1132.41 30.3906L1131.8 31.1884C1154.01 47.969 1169.91 71.8673 1179.5 102.951L1180.45 102.656L1181.41 102.362C1171.72 70.9452 1155.6 46.6665 1133.01 29.5929L1132.41 30.3906ZM1180.45 102.656L1179.5 102.951C1189.1 134.08 1193.91 171.216 1193.91 214.375H1194.91H1195.91C1195.91 171.076 1191.08 133.732 1181.41 102.362L1180.45 102.656ZM1194.91 214.375H1193.91C1193.91 255.981 1189.88 292.22 1181.83 323.107L1182.8 323.359L1183.76 323.611C1191.86 292.519 1195.91 256.103 1195.91 214.375H1194.91ZM1182.8 323.359L1181.83 323.105C1173.8 353.668 1159.45 377.298 1138.81 394.068L1139.44 394.844L1140.07 395.62C1161.09 378.536 1175.65 354.509 1183.76 323.613L1182.8 323.359ZM1139.44 394.844L1138.8 394.072C1118.47 410.8 1089.43 419.234 1051.55 419.234V420.234V421.234C1089.7 421.234 1119.26 412.742 1140.07 395.616L1139.44 394.844ZM1051.55 420.234V419.234H995.688V420.234V421.234H1051.55V420.234ZM995.688 420.234H994.688V692.5H995.688H996.688V420.234H995.688ZM995.688 692.5V691.5H860.531V692.5V693.5H995.688V692.5ZM995.688 296.797V297.797H1003.5V296.797V295.797H995.688V296.797ZM1003.5 296.797V297.797C1029.13 297.797 1045.34 290.602 1051.3 275.684L1050.38 275.312L1049.45 274.941C1043.96 288.668 1028.91 295.797 1003.5 295.797V296.797ZM1050.38 275.312L1051.3 275.684C1057.1 261.183 1059.97 239.937 1059.97 212.031H1058.97H1057.97C1057.97 239.854 1055.1 260.796 1049.45 274.941L1050.38 275.312ZM1058.97 212.031H1059.97C1059.97 185.939 1057.1 165.736 1051.3 151.498L1050.38 151.875L1049.45 152.252C1055.11 166.139 1057.97 186.04 1057.97 212.031H1058.97ZM1050.38 151.875L1051.31 151.518C1048.49 144.14 1043.68 138.581 1036.89 134.883C1030.12 131.198 1021.44 129.391 1010.92 129.391V130.391V131.391C1021.23 131.391 1029.55 133.164 1035.93 136.64C1042.29 140.104 1046.79 145.287 1049.44 152.232L1050.38 151.875ZM1010.92 130.391V129.391H995.688V130.391V131.391H1010.92V130.391ZM995.688 130.391H994.688V296.797H995.688H996.688V130.391H995.688ZM1176.19 692.5L1175.19 692.404L1175.09 693.5H1176.19V692.5ZM1242.59 5V4H1241.69L1241.6 4.90387L1242.59 5ZM1475.8 5L1476.79 4.90555L1476.71 4H1475.8V5ZM1541.03 692.5V693.5H1542.13L1542.03 692.406L1541.03 692.5ZM1410.95 692.5L1409.96 692.588L1410.04 693.5H1410.95V692.5ZM1401.19 581.562L1402.18 581.475L1402.1 580.562H1401.19V581.562ZM1318.38 581.562V580.562H1317.45L1317.38 581.485L1318.38 581.562ZM1309.78 692.5V693.5H1310.71L1310.78 692.577L1309.78 692.5ZM1328.14 471.797L1327.14 471.722L1327.06 472.797H1328.14V471.797ZM1390.64 471.797V472.797H1391.73L1391.64 471.711L1390.64 471.797ZM1360.56 122.188L1361.56 122.102L1361.48 121.188H1360.56V122.188ZM1354.31 122.188V121.188H1353.38L1353.32 122.113L1354.31 122.188ZM1176.19 692.5L1177.18 692.596L1243.59 5.09613L1242.59 5L1241.6 4.90387L1175.19 692.404L1176.19 692.5ZM1242.59 5V6H1475.8V5V4H1242.59V5ZM1475.8 5L1474.8 5.09445L1540.04 692.594L1541.03 692.5L1542.03 692.406L1476.79 4.90555L1475.8 5ZM1541.03 692.5V691.5H1410.95V692.5V693.5H1541.03V692.5ZM1410.95 692.5L1411.95 692.412L1402.18 581.475L1401.19 581.562L1400.19 581.65L1409.96 692.588L1410.95 692.5ZM1401.19 581.562V580.562H1318.38V581.562V582.562H1401.19V581.562ZM1318.38 581.562L1317.38 581.485L1308.78 692.423L1309.78 692.5L1310.78 692.577L1319.37 581.64L1318.38 581.562ZM1309.78 692.5V691.5H1176.19V692.5V693.5H1309.78V692.5ZM1328.14 471.797V472.797H1390.64V471.797V470.797H1328.14V471.797ZM1390.64 471.797L1391.64 471.711L1361.56 122.102L1360.56 122.188L1359.57 122.273L1389.64 471.883L1390.64 471.797ZM1360.56 122.188V121.188H1354.31V122.188V123.188H1360.56V122.188ZM1354.31 122.188L1353.32 122.113L1327.14 471.722L1328.14 471.797L1329.14 471.872L1355.31 122.262L1354.31 122.188Z" fill="url(#paint0_linear_716_61)" mask="url(#path-1-outside-1_716_61)"/>
</g>
<defs>
<filter id="filter0_f_716_61" x="-87.5312" y="0" width="1633.66" height="697.5" filterUnits="userSpaceOnUse" color-interpolation-filters="sRGB">
<feFlood flood-opacity="0" result="BackgroundImageFix"/>
<feBlend mode="normal" in="SourceGraphic" in2="BackgroundImageFix" result="shape"/>
<feGaussianBlur stdDeviation="2" result="effect1_foregroundBlur_716_61"/>
</filter>
<linearGradient id="paint0_linear_716_61" x1="-113" y1="353.5" x2="1553" y2="353.5" gradientUnits="userSpaceOnUse">
<stop offset="0.625" stop-color="#FDC700"/>
<stop offset="0.951923" stop-color="#FEF9C2"/>
</linearGradient>
</defs>
</svg>
