<svg width="1440" height="698" viewBox="0 0 1440 698" fill="none" xmlns="http://www.w3.org/2000/svg">
<g opacity="0.6" filter="url(#filter0_f_1047_52)">
<path d="M1476.71 4L1542.13 693.5H1410.04L1400.27 582.562H1319.3L1310.71 693.5H1175.09L1241.69 4H1476.71ZM1242.59 5L1176.19 692.5H1309.78L1318.38 581.562H1401.19L1410.95 692.5H1541.03L1475.8 5H1242.59ZM1360.56 122.188L1390.64 471.797H1328.14L1354.31 122.188H1360.56ZM1329.22 470.797H1389.55L1359.65 123.188H1355.24L1329.22 470.797Z" fill="url(#paint0_linear_1047_52)"/>
</g>
<g opacity="0.6" filter="url(#filter1_f_1047_52)">
<path d="M859.531 4H1042.17V5H860.531V692.5H995.688V420.234H1051.55C1089.57 420.234 1118.86 411.771 1139.44 394.844C1160.27 377.917 1174.72 354.089 1182.8 323.359C1190.87 292.37 1194.91 256.042 1194.91 214.375C1194.91 171.146 1190.09 133.906 1180.45 102.656C1170.82 71.4062 1154.8 47.3177 1132.41 30.3906C1110.27 13.4635 1080.19 5 1042.17 5V4C1080.33 4 1110.65 12.4936 1133.01 29.5928C1155.25 46.3997 1171.22 70.1884 1180.95 100.895L1181.41 102.361C1191.08 133.732 1195.91 171.076 1195.91 214.375C1195.91 256.103 1191.86 292.519 1183.76 323.611L1183.76 323.613C1175.65 354.507 1161.1 378.531 1140.07 395.615C1119.26 412.741 1089.7 421.234 1051.55 421.234H996.688V693.5H859.531V4ZM1057.97 212.031C1057.97 186.852 1055.28 167.388 1049.97 153.571L1049.45 152.252L1049.44 152.242L1049.44 152.231C1046.79 145.287 1042.29 140.103 1035.93 136.64C1029.55 133.164 1021.23 131.391 1010.92 131.391H996.688V295.797H1003.5V296.797H995.688V130.391H1010.92C1031.76 130.391 1044.91 137.552 1050.38 151.875C1056.1 165.938 1058.97 185.99 1058.97 212.031C1058.97 239.896 1056.1 260.99 1050.38 275.312C1044.65 289.635 1029.02 296.797 1003.5 296.797V295.797C1028.91 295.797 1043.96 288.668 1049.45 274.941C1055.1 260.796 1057.97 239.854 1057.97 212.031Z" fill="url(#paint1_linear_1047_52)"/>
</g>
<g opacity="0.6" filter="url(#filter2_f_1047_52)">
<path d="M562.844 5V692.5H846.828V558.516H702.688V401.094H832.375V271.797H702.688V137.812H837.844V5H562.844ZM838.844 138.812H703.688V270.797H833.375V402.094H703.688V557.516H847.828V693.5H561.844V4H838.844V138.812Z" fill="url(#paint2_linear_1047_52)"/>
</g>
<g opacity="0.6" filter="url(#filter3_f_1047_52)">
<path d="M544.453 565.938H390.938L551.094 125.312V5H263.984V131.562H406.172L248.75 567.5V692.5H544.453V565.938ZM552.094 125.488L552.033 125.654L392.364 564.938H545.453V693.5H247.75V567.325L404.748 132.562H262.984V4H552.094V125.488Z" fill="url(#paint3_linear_1047_52)"/>
</g>
<g opacity="0.6" filter="url(#filter4_f_1047_52)">
<path d="M107.484 423.359C107.484 413.39 106.447 405.405 104.412 399.362C102.442 393.514 99.5637 389.559 95.8555 387.332L95.4941 387.121L95.4775 387.112L95.4619 387.103C87.7789 382.394 75.1928 379.922 57.5312 379.832V693.5H-83.5312V4H128.406V5H-82.5312V692.5H56.5312V378.828C74.7604 378.828 87.9115 381.302 95.9844 386.25C104.318 390.938 108.484 403.307 108.484 423.359V692.5H244.031V432.344C244.031 405.26 239.604 383.255 230.75 366.328C222.156 349.141 207.052 338.333 185.438 333.906C211.74 325.312 229.578 309.818 238.953 287.422C248.589 265.026 253.406 235.078 253.406 197.578C253.406 158.776 250.281 125.052 244.031 96.4062C238.042 67.5 226.062 45.1042 208.094 29.2188C190.125 13.0729 163.562 5 128.406 5V4C163.695 4 190.535 12.1012 208.756 28.4697C226.921 44.5286 238.988 67.1352 245.011 96.2031L245.01 96.2041C251.277 124.936 254.406 158.731 254.406 197.578C254.406 235.148 249.582 265.248 239.872 287.817C230.774 309.545 213.809 324.834 189.103 333.705C209.129 338.601 223.352 349.308 231.636 365.864C240.589 382.982 245.031 405.162 245.031 432.344V693.5H107.484V423.359ZM118.031 197.578C118.031 184.188 117.511 173.131 116.476 164.396C115.438 155.637 113.891 149.299 111.887 145.291C107.932 137.381 100.528 133.344 89.3438 133.344H58.3125V258.688H90.5156V259.688H57.3125V132.344H89.3438C100.802 132.344 108.615 136.51 112.781 144.844C116.948 153.177 119.031 170.755 119.031 197.578C119.031 238.984 109.526 259.688 90.5156 259.688V258.688C95.0747 258.688 99.0234 257.45 102.403 254.996C105.794 252.535 108.668 248.807 110.993 243.743C115.655 233.59 118.031 218.236 118.031 197.578Z" fill="url(#paint4_linear_1047_52)"/>
</g>
<defs>
<filter id="filter0_f_1047_52" x="1171.09" y="0" width="375.045" height="697.5" filterUnits="userSpaceOnUse" color-interpolation-filters="sRGB">
<feFlood flood-opacity="0" result="BackgroundImageFix"/>
<feBlend mode="normal" in="SourceGraphic" in2="BackgroundImageFix" result="shape"/>
<feGaussianBlur stdDeviation="2" result="effect1_foregroundBlur_1047_52"/>
</filter>
<filter id="filter1_f_1047_52" x="855.531" y="0" width="344.375" height="697.5" filterUnits="userSpaceOnUse" color-interpolation-filters="sRGB">
<feFlood flood-opacity="0" result="BackgroundImageFix"/>
<feBlend mode="normal" in="SourceGraphic" in2="BackgroundImageFix" result="shape"/>
<feGaussianBlur stdDeviation="2" result="effect1_foregroundBlur_1047_52"/>
</filter>
<filter id="filter2_f_1047_52" x="557.844" y="0" width="293.984" height="697.5" filterUnits="userSpaceOnUse" color-interpolation-filters="sRGB">
<feFlood flood-opacity="0" result="BackgroundImageFix"/>
<feBlend mode="normal" in="SourceGraphic" in2="BackgroundImageFix" result="shape"/>
<feGaussianBlur stdDeviation="2" result="effect1_foregroundBlur_1047_52"/>
</filter>
<filter id="filter3_f_1047_52" x="243.75" y="0" width="312.344" height="697.5" filterUnits="userSpaceOnUse" color-interpolation-filters="sRGB">
<feFlood flood-opacity="0" result="BackgroundImageFix"/>
<feBlend mode="normal" in="SourceGraphic" in2="BackgroundImageFix" result="shape"/>
<feGaussianBlur stdDeviation="2" result="effect1_foregroundBlur_1047_52"/>
</filter>
<filter id="filter4_f_1047_52" x="-87.5312" y="0" width="345.938" height="697.5" filterUnits="userSpaceOnUse" color-interpolation-filters="sRGB">
<feFlood flood-opacity="0" result="BackgroundImageFix"/>
<feBlend mode="normal" in="SourceGraphic" in2="BackgroundImageFix" result="shape"/>
<feGaussianBlur stdDeviation="2" result="effect1_foregroundBlur_1047_52"/>
</filter>
<linearGradient id="paint0_linear_1047_52" x1="-113" y1="353.5" x2="1553" y2="353.5" gradientUnits="userSpaceOnUse">
<stop offset="0.625" stop-color="#FDC700"/>
<stop offset="0.951923" stop-color="#FEF9C2"/>
</linearGradient>
<linearGradient id="paint1_linear_1047_52" x1="-113" y1="353.5" x2="1553" y2="353.5" gradientUnits="userSpaceOnUse">
<stop offset="0.625" stop-color="#FDC700"/>
<stop offset="0.951923" stop-color="#FEF9C2"/>
</linearGradient>
<linearGradient id="paint2_linear_1047_52" x1="-113" y1="353.5" x2="1553" y2="353.5" gradientUnits="userSpaceOnUse">
<stop offset="0.625" stop-color="#FDC700"/>
<stop offset="0.951923" stop-color="#FEF9C2"/>
</linearGradient>
<linearGradient id="paint3_linear_1047_52" x1="-113" y1="353.5" x2="1553" y2="353.5" gradientUnits="userSpaceOnUse">
<stop offset="0.625" stop-color="#FDC700"/>
<stop offset="0.951923" stop-color="#FEF9C2"/>
</linearGradient>
<linearGradient id="paint4_linear_1047_52" x1="-113" y1="353.5" x2="1553" y2="353.5" gradientUnits="userSpaceOnUse">
<stop offset="0.625" stop-color="#FDC700"/>
<stop offset="0.951923" stop-color="#FEF9C2"/>
</linearGradient>
</defs>
</svg>
