<svg width="1440" height="690" viewBox="0 0 1440 690" fill="none" xmlns="http://www.w3.org/2000/svg">
<path opacity="0.6" d="M1476.71 0L1542.13 689.5H1410.04L1400.27 578.562H1319.3L1310.71 689.5H1175.09L1241.69 0H1476.71ZM1242.59 1L1176.19 688.5H1309.78L1318.38 577.562H1401.19L1410.95 688.5H1541.03L1475.8 1H1242.59ZM1360.56 118.188L1390.64 467.797H1328.14L1354.31 118.188H1360.56ZM1329.22 466.797H1389.55L1359.65 119.188H1355.24L1329.22 466.797Z" fill="url(#paint0_linear_1047_52)"/>
<path opacity="0.6" d="M859.531 0H1042.17V1H860.531V688.5H995.688V416.234H1051.55C1089.57 416.234 1118.86 407.771 1139.44 390.844C1160.27 373.917 1174.72 350.089 1182.8 319.359C1190.87 288.37 1194.91 252.042 1194.91 210.375C1194.91 167.146 1190.09 129.906 1180.45 98.6562C1170.82 67.4062 1154.8 43.3177 1132.41 26.3906C1110.27 9.46354 1080.19 1 1042.17 1V0C1080.33 0 1110.65 8.49364 1133.01 25.5928C1155.25 42.3997 1171.22 66.1884 1180.95 96.8945L1181.41 98.3613C1191.08 129.732 1195.91 167.076 1195.91 210.375C1195.91 252.103 1191.86 288.519 1183.76 319.611L1183.76 319.613C1175.65 350.507 1161.1 374.531 1140.07 391.615C1119.26 408.741 1089.7 417.234 1051.55 417.234H996.688V689.5H859.531V0ZM1057.97 208.031C1057.97 182.852 1055.28 163.388 1049.97 149.571L1049.45 148.252L1049.44 148.242L1049.44 148.231C1046.79 141.287 1042.29 136.103 1035.93 132.64C1029.55 129.164 1021.23 127.391 1010.92 127.391H996.688V291.797H1003.5V292.797H995.688V126.391H1010.92C1031.76 126.391 1044.91 133.552 1050.38 147.875C1056.1 161.938 1058.97 181.99 1058.97 208.031C1058.97 235.896 1056.1 256.99 1050.38 271.312C1044.65 285.635 1029.02 292.797 1003.5 292.797V291.797C1028.91 291.797 1043.96 284.668 1049.45 270.941C1055.1 256.796 1057.97 235.854 1057.97 208.031Z" fill="url(#paint1_linear_1047_52)"/>
<path opacity="0.6" d="M562.844 1V688.5H846.828V554.516H702.688V397.094H832.375V267.797H702.688V133.812H837.844V1H562.844ZM838.844 134.812H703.688V266.797H833.375V398.094H703.688V553.516H847.828V689.5H561.844V0H838.844V134.812Z" fill="url(#paint2_linear_1047_52)"/>
<path opacity="0.6" d="M544.453 561.938H390.938L551.094 121.312V1H263.984V127.562H406.172L248.75 563.5V688.5H544.453V561.938ZM552.094 121.488L552.033 121.654L392.364 560.938H545.453V689.5H247.75V563.325L404.748 128.562H262.984V0H552.094V121.488Z" fill="url(#paint3_linear_1047_52)"/>
<path opacity="0.6" d="M107.484 419.359C107.484 409.39 106.447 401.405 104.412 395.362C102.442 389.514 99.5637 385.559 95.8555 383.332L95.4941 383.121L95.4775 383.112L95.4619 383.103C87.7789 378.394 75.1928 375.922 57.5312 375.832V689.5H-83.5312V0H128.406V1H-82.5312V688.5H56.5312V374.828C74.7604 374.828 87.9115 377.302 95.9844 382.25C104.318 386.938 108.484 399.307 108.484 419.359V688.5H244.031V428.344C244.031 401.26 239.604 379.255 230.75 362.328C222.156 345.141 207.052 334.333 185.438 329.906C211.74 321.312 229.578 305.818 238.953 283.422C248.589 261.026 253.406 231.078 253.406 193.578C253.406 154.776 250.281 121.052 244.031 92.4062C238.042 63.5 226.062 41.1042 208.094 25.2188C190.125 9.07292 163.562 1 128.406 1V0C163.695 0 190.535 8.10121 208.756 24.4697C226.921 40.5286 238.988 63.1352 245.011 92.2031L245.01 92.2041C251.277 120.936 254.406 154.731 254.406 193.578C254.406 231.148 249.582 261.248 239.872 283.817C230.774 305.545 213.809 320.834 189.103 329.705C209.129 334.601 223.352 345.308 231.636 361.864C240.589 378.982 245.031 401.162 245.031 428.344V689.5H107.484V419.359ZM118.031 193.578C118.031 180.188 117.511 169.131 116.476 160.396C115.438 151.637 113.891 145.299 111.887 141.291C107.932 133.381 100.528 129.344 89.3438 129.344H58.3125V254.688H90.5156V255.688H57.3125V128.344H89.3438C100.802 128.344 108.615 132.51 112.781 140.844C116.948 149.177 119.031 166.755 119.031 193.578C119.031 234.984 109.526 255.688 90.5156 255.688V254.688C95.0747 254.688 99.0234 253.45 102.403 250.996C105.794 248.535 108.668 244.807 110.993 239.743C115.655 229.59 118.031 214.236 118.031 193.578Z" fill="url(#paint4_linear_1047_52)"/>
<defs>
<linearGradient id="paint0_linear_1047_52" x1="-113" y1="349.5" x2="1553" y2="349.5" gradientUnits="userSpaceOnUse">
<stop offset="0.625" stop-color="#FDC700"/>
<stop offset="0.951923" stop-color="#FEF9C2"/>
</linearGradient>
<linearGradient id="paint1_linear_1047_52" x1="-113" y1="349.5" x2="1553" y2="349.5" gradientUnits="userSpaceOnUse">
<stop offset="0.625" stop-color="#FDC700"/>
<stop offset="0.951923" stop-color="#FEF9C2"/>
</linearGradient>
<linearGradient id="paint2_linear_1047_52" x1="-113" y1="349.5" x2="1553" y2="349.5" gradientUnits="userSpaceOnUse">
<stop offset="0.625" stop-color="#FDC700"/>
<stop offset="0.951923" stop-color="#FEF9C2"/>
</linearGradient>
<linearGradient id="paint3_linear_1047_52" x1="-113" y1="349.5" x2="1553" y2="349.5" gradientUnits="userSpaceOnUse">
<stop offset="0.625" stop-color="#FDC700"/>
<stop offset="0.951923" stop-color="#FEF9C2"/>
</linearGradient>
<linearGradient id="paint4_linear_1047_52" x1="-113" y1="349.5" x2="1553" y2="349.5" gradientUnits="userSpaceOnUse">
<stop offset="0.625" stop-color="#FDC700"/>
<stop offset="0.951923" stop-color="#FEF9C2"/>
</linearGradient>
</defs>
</svg>
