<svg width="279" height="300" viewBox="0 0 279 300" fill="none" xmlns="http://www.w3.org/2000/svg">
<g opacity="0.5">
<g filter="url(#filter0_i_763_79)">
<path d="M118.438 149.5H118.595M189.5 149.5H189.658M260.563 149.5H260.72M189.5 291.625C267.993 291.625 331.625 227.993 331.625 149.5C331.625 71.0065 267.993 7.375 189.5 7.375C111.007 7.375 47.375 71.0065 47.375 149.5C47.375 168.405 51.0661 186.448 57.7669 202.947C59.0494 206.105 59.6906 207.684 59.9767 208.96C60.2565 210.209 60.3589 211.132 60.359 212.412C60.3592 213.72 60.1217 215.145 59.6468 217.994L50.2827 274.179C49.3021 280.063 48.8118 283.004 49.7242 285.132C50.5227 286.994 52.0064 288.477 53.8683 289.276C55.9956 290.188 58.9374 289.698 64.821 288.717L121.006 279.353C123.855 278.878 125.28 278.641 126.588 278.641C127.868 278.641 128.791 278.744 130.04 279.023C131.316 279.309 132.895 279.951 136.053 281.233C152.552 287.934 170.595 291.625 189.5 291.625ZM126.333 149.5C126.333 153.861 122.798 157.396 118.438 157.396C114.077 157.396 110.542 153.861 110.542 149.5C110.542 145.139 114.077 141.604 118.438 141.604C122.798 141.604 126.333 145.139 126.333 149.5ZM197.396 149.5C197.396 153.861 193.861 157.396 189.5 157.396C185.139 157.396 181.604 153.861 181.604 149.5C181.604 145.139 185.139 141.604 189.5 141.604C193.861 141.604 197.396 145.139 197.396 149.5ZM268.458 149.5C268.458 153.861 264.923 157.396 260.563 157.396C256.202 157.396 252.667 153.861 252.667 149.5C252.667 145.139 256.202 141.604 260.563 141.604C264.923 141.604 268.458 145.139 268.458 149.5Z" stroke="#3F3F47" stroke-width="6" stroke-linecap="round" stroke-linejoin="round"/>
</g>
</g>
<defs>
<filter id="filter0_i_763_79" x="44.375" y="4.375" width="290.25" height="292.25" filterUnits="userSpaceOnUse" color-interpolation-filters="sRGB">
<feFlood flood-opacity="0" result="BackgroundImageFix"/>
<feBlend mode="normal" in="SourceGraphic" in2="BackgroundImageFix" result="shape"/>
<feColorMatrix in="SourceAlpha" type="matrix" values="0 0 0 0 0 0 0 0 0 0 0 0 0 0 0 0 0 0 127 0" result="hardAlpha"/>
<feOffset dy="4"/>
<feGaussianBlur stdDeviation="1"/>
<feComposite in2="hardAlpha" operator="arithmetic" k2="-1" k3="1"/>
<feColorMatrix type="matrix" values="0 0 0 0 0.0941176 0 0 0 0 0.0941176 0 0 0 0 0.105882 0 0 0 0.5 0"/>
<feBlend mode="normal" in2="shape" result="effect1_innerShadow_763_79"/>
</filter>
</defs>
</svg>
