<svg width="128" height="128" viewBox="0 0 128 128" fill="none" xmlns="http://www.w3.org/2000/svg">
<g clip-path="url(#clip0_584_212)">
<path d="M0 0H128V128H0V0Z" fill="black"/>
<path d="M89 70L74.125 70.25H73.5L71.4375 70.4375L70.4375 70.25L69 70.4375L66.625 70.8125H63.8125L57.5 71.8125L54.875 72.25L53.75 72.4375L50.8125 73.0625L46 73.8125L39.125 75.1875L35.0625 76.0625L30 77.125L27.0625 77.8125L24.75 78.375L20.0625 79.5625L17.6875 80.1875L14.5625 81.125L13.4375 81.5L11.0625 82.25L9.75 82.8125L9.3125 83.1875L9 83.6875V84.5625L9.25 85.3125L9.4375 85.5625H10.0625L10.6875 85.4375L12.6875 84.9375L15.75 84.125L18.4375 83.3125L19.4375 83L20.375 82.5625L21.375 82.125L23.125 81.625L27.0625 80.6875L28.8125 80.3125L33.4375 79.3125L35.625 78.8125L38.5625 78.1875L41 77.6875L44.9375 76.9375L47.5 76.5L50.9375 75.9375L55.125 75.3125L58.125 74.8125L61.125 74.4375L65.0625 74L67.375 73.8125L71.375 73.5625L77.875 73.3125L80.9375 73.125L86.1875 73.0625V73.1875H85.9375L84.5 73.5L79.625 74.125L75.0625 74.8125L71.375 75.375L66.625 76.1875L63.875 76.6875L59.6875 77.5625L55.75 78.4375L53.1875 79.0625L50.9375 79.6875L48.3125 80.4375L44.625 81.625L42.875 82.25L41.625 82.6875L39.625 83.4375L37.8125 84.1875L36.625 84.6875L35.5 85.3125L34.875 85.8125L34.5 86.375V86.875L34.6875 87.5625L35.125 88.4375L35.75 89.0625L36.4375 89.3125H36.9375L42.0625 88.1875L44.6875 87.625L50.125 86.6875L57.375 85.6875L59.8125 85.4375L63.1875 85.125L66.9375 84.8125L70.375 84.625L73.375 84.5625H80.6875L84.8125 84.625L85.6875 84.6875L87.25 84.875L87.1875 84.9375L86.75 85.4375L85.5625 86.625L85.25 87.125L85.1875 87.4375H85.4375L86.0625 87.25L87 86.75L87.625 86.3125L88.5 85.875L89.75 85.375L90.1875 85L90.375 84.625V83.5625L90.25 83.0625L90 82.6875L89.625 82.4375L88.625 82.0625L87.625 81.8125L86.0625 81.625L83.8125 81.5L80.5 81.375H76.4375L72.3125 81.5L67 81.75L64.3125 81.9375L58.625 82.375L55.875 82.6875L53.625 82.875H51.4375L51.8125 82.6875L53.0625 82.25L59.5625 80.625L62 80.0625L63.8125 79.6875L68.4375 78.875L71.875 78.375L76.25 77.6875L78.75 77.375L82.0625 77L85.3125 76.6875L89.5 76.375L93.1875 76.1875L98 76.125L98.3125 76.0625H101.25L102.75 76.125L106.812 76.375L110.125 76.625L114.375 77H115.75L115.938 76.9375L116.5 76.5L116.75 76.1875L117.188 75.3125V74.625L117.062 74.125L116.688 73.625L115.875 73.125L115 72.8125L113.438 72.5625L102.75 70.8125L94.625 70.1875L94.0625 70.125L89 70Z" fill="#FDC700"/>
<path d="M77.1875 28.9375H81.8125L84.6875 29.0625L86.125 29.1875L87.3125 29.4375L88.25 29.8125L88.9375 30.1875L89.625 30.6875L90.25 31.25L90.8125 31.9375L91.375 32.8125L91.8125 33.6875L92.3125 35.0625L92.625 36.25L92.875 37.75L93.0625 39.375L93.1875 41.1875V43.625L93.0625 45.5L92.8125 47.8125L92.5625 49.25L92.25 50.4375L91.75 51.6875L91.1875 52.6875L90.5 53.5625L89.875 54.25L89.1875 54.6875L88.0625 55.1875L86.9375 55.5L86.25 55.625L85.375 55.6875L81.5625 55.75L81.625 70.0625L86.5625 70.125V70.1875L81.8125 70.25L81.75 70.3125L78.5625 70.4375L76.0625 70.5L71.1875 70.75L67.4375 71.0625L64.6875 71.3125L59 71.9375L55.3125 72.375L54.5 72.4375L54.4375 70.5625L54.375 58.5625V35.625L54.4375 29.8125L54.5 29.0625L54.625 29H70.0625L70.375 29.125L70.4375 29.4375V37.375L70.3125 37.5L70.0625 37.5625H62.5625V46.25H70L70.0625 46.3125V54.3125L69.9375 54.5L69.625 54.5625L62.625 54.625V64.6875H70.8125L70.9375 65.25L71 68.875L71.0625 70.5625L73.125 70.375H73.75L73.6875 65.4375L73.625 58.25V35.75L73.6875 29.625L73.75 29.125L73.8125 29.0625L74.8125 29L77.1875 28.9375Z" fill="#FDFDFC"/>
<path d="M17.9375 28.9375H22.3125L25.6875 29.0625L27.125 29.1875L27.9375 29.375L28.9375 29.8125L29.8125 30.4375L30.3125 30.9375L30.875 31.75L31.375 32.6875L31.8125 33.875L32.1875 35.375L32.375 36.5625L32.5625 38.8125L32.625 40.25V41.75L32.5 43.875L32.3125 45.3125L32.0625 46.375L31.75 47.3125L31.3125 48.0625L30.6875 48.875L30.0625 49.5L29.3125 50L28.9375 50.3125L29.6875 50.625L30.375 51L30.875 51.5625L31.375 52.4375L31.75 53.375L31.875 53.875L32 55.375L32.0625 56.9375L32.125 65.75V73.3125L31.5625 73.375L24.25 73.3125L24.125 73.1875L24.0625 72.8125L24 54.75L23.875 54.0625L23.5625 53.6875L22.9375 53.375L22.375 53.1875L22.0625 53.125H21.125V73.25L21 73.3125H13.25L13.125 73.25L13 72.9375L12.9375 72.1875L12.875 68.875L12.8125 54.3125V44.5L12.875 32.625L12.9375 30.25L13 29.25L13.125 29L17.9375 28.9375Z" fill="#FDFDFC"/>
<path d="M97.875 29H111L111.438 29.125L111.562 29.625L111.812 32.9375L112.438 40.1875L112.875 45.5L113.438 51.9375L113.812 56.5625L114.438 63.4375L115.188 72.5V72.9375L114.125 72.8125L112.5 72.5625L110.125 72.25L109.562 72.125L107.688 71.875L107.562 71.8125L107.375 70.8125L107.125 66.875L107.062 66.1875H105.75L102.25 66.25L102.062 70.0625V71.0625H101.25L99.125 70.875L97.375 70.75L96.1875 70.625L94.3125 70.5L93.125 70.375V70.3125H94.25V69.5L94.75 64.125L95.1875 58.8125L95.625 53.9375L96.0625 48.625L96.5625 43.125L96.9375 38.8125L97.3125 34.3125L97.8125 29.125L97.875 29Z" fill="#FDFDFC"/>
<path d="M54.625 29H70.0625L70.375 29.125L70.4375 29.4375V37.375L70.3125 37.5L70.0625 37.5625H62.5625V46.25H70L70.0625 46.3125V54.3125L69.9375 54.5L69.625 54.5625L62.625 54.625V64.6875H70.8125L70.9375 65.25L71 68.875L71.0625 70.5625L72.8125 70.4375V70.5L73.5 70.5625V70.625L71.1875 70.75L67.4375 71.0625L64.6875 71.3125L59 71.9375L55.3125 72.375L54.5 72.4375L54.4375 70.5625L54.375 58.5625V35.625L54.4375 29.8125L54.5 29.0625L54.625 29Z" fill="#FDFDFB"/>
<path d="M35.1875 29H51.8125L51.875 29.0625V34.9375L51.75 36.75L51.5 37.8125L50.9375 39.4375L49.75 43.125L49.1875 44.9375L48.75 46.25L47.9375 48.75L47.1875 51L46.1875 54.125L45.3125 56.8125L42.6875 64.6875L42.4375 65.1875H51.1875L51.4375 65.4375L51.5 67.625V72.8125L50.9375 73L49.0625 73.25L48.4375 73.3125H34.4375L34.1875 73L34.125 72.8125V66.75L34.1875 65.0625L34.3125 64.4375L34.625 63.8125L35.375 61.375L36.1875 59L38.3125 52.625L39.1875 49.9375L40.375 46.3125L41.375 43.1875L42.5625 39.5625L43.1875 37.4375L43.25 37L42.25 37.0625L37.25 37.125H35.3125L35 37V34.75L35.125 29.0625L35.1875 29Z" fill="#FDFDFC"/>
<path d="M104.188 36.6875L104.5 36.8125L104.688 37.25L104.875 38.625L105.188 41.875L105.75 49.25L106.188 54.5L106.438 58.125V59.0625H102.875V58.25L103 56.3125L103.312 51.75L103.75 44.6875L104.125 38.0625V36.8125L104.188 36.6875Z" fill="#010000"/>
<path d="M81.9375 37H82.875L83.5625 37.1875L84.0625 37.5L84.5 38L84.875 38.8125L85.125 39.8125L85.25 40.875V43.8125L85.0625 45.4375L84.875 46.25L84.5 46.875L83.9375 47.375L83.3125 47.6875L82.5 47.875L81.625 47.9375L81.5625 47.875V37.875L81.625 37.125L81.9375 37Z" fill="black"/>
<path d="M21.5 37.125H23.125L23.875 37.3125L24.3125 37.6875L24.5625 38.375L24.6875 39.375V42.75L24.5 44.125L24.25 44.75L23.75 45.1875L23.25 45.375L22.5 45.5H21.1875L21.0625 45.1875V39.125L21.125 37.25L21.5 37.125Z" fill="black"/>
</g>
<defs>
<clipPath id="clip0_584_212">
<rect width="128" height="128" fill="white"/>
</clipPath>
</defs>
</svg>
